<svg id="Layer_5" enable-background="new 0 0 64 64" height="512" viewBox="0 0 64 64" width="512" xmlns="http://www.w3.org/2000/svg"><g fill="#b4dd7f"><path d="m2 18h4v8h-4z"/><path d="m10 14h4v12h-4z"/><path d="m22 10v11c-.47.63-.92 1.3-1.31 2-.58.98-1.06 2.01-1.46 3.09l-.23-.09h-1v-16z"/></g><path d="m38 13c-2.85 0-5.55.6-8 1.67v-4.67h-3l7-8 7 8h-3z" fill="#fcd770"/><path d="m54 2 7 8h-3v23c0-3.64-.98-7.06-2.69-10-1.34-2.34-3.15-4.38-5.31-6v-7h-3z" fill="#fcd770"/><path d="m7 46h5v2 12 2h-10v-16z" fill="#ccd1d9"/><circle cx="38" cy="33" fill="#69d6f4" r="20"/><path d="m23.09 46.29 6.19-5.07 1.96-1.6c.49-.4 1.11-.62 1.74-.62h.28c1.51 0 2.74 1.23 2.74 2.74 0 .4-.09.79-.25 1.14-.17.36-.41.68-.71.94l-3.22 2.76-2.82 2.42v1l1.99 1.33c.66.44 1.43.67 2.22.67h3.23 3.12 3.78c1.06 0 2.08-.42 2.83-1.17l7-7c.53-.53 1.25-.83 2-.83.04 0 .08.01.12.01v-.01h.01c.73.04 1.39.35 1.87.83.51.51.83 1.22.83 2v.01c0 .74-.29 1.45-.82 1.98-1.88 1.88-6.5 6.5-8.37 8.37-.53.53-1.2.9-1.93 1.07l-11.44 2.64c-.29.07-.59.1-.9.1h-22.54v-12h9z" fill="#f0d0b4"/><path d="m6 57h2v2h-2z"/><path d="m54 .481-9.204 10.519h4.204v4.146c-2.936-1.816-6.344-2.921-10-3.095v-1.051h4.204l-9.204-10.519-9.204 10.519h4.204v3.055c-2.246 1.072-4.279 2.516-6 4.276v-9.331h-6v16h-2v-12h-6v12h-2v-8h-6v10h16.884c-.568 1.903-.884 3.914-.884 6 0 4.793 1.667 9.416 4.682 13.15l-1.039.85h-7.643v-2h-12v18h12v-2h21.544c.379 0 .758-.043 1.124-.128l11.439-2.64c.914-.212 1.746-.673 2.407-1.334l8.372-8.372c.718-.716 1.114-1.671 1.114-2.696.001-1.023-.397-1.985-1.12-2.708-.323-.323-.704-.562-1.111-.741 1.461-2.915 2.231-6.132 2.231-9.381v-22h4.204zm-49 24.519h-2v-6h2zm26.626 23.07c.822 1.161 1.662 2.133 2.438 2.93h-.853c-.594 0-1.169-.175-1.664-.504l-1.547-1.031zm5.365 2.93c-1.035-.872-2.47-2.273-3.838-4.24l2.541-2.18c.204-.175.385-.37.545-.58h8.265c-1.677 3.341-3.864 5.627-5.494 7zm-10.237-9h-5.449c-1.334-2.461-2.109-5.186-2.259-8h7.992c.081 2.387.449 4.689 1.102 6.866zm-5.481-18h7.204c-.804 2.298-1.355 4.957-1.455 8h-7.971c.151-2.88.924-5.597 2.222-8zm16.729-9.789c1.195.864 4.237 3.384 6.46 7.789h-12.913c2.224-4.394 5.261-6.922 6.453-7.789zm7.353 9.789c.878 2.256 1.486 4.919 1.601 8h-17.912c.115-3.079.727-5.742 1.609-8zm-15.531 15.488c-.458-1.753-.718-3.59-.787-5.488h17.93c-.11 3.084-.712 5.741-1.582 8h-8.414c.007-.088.029-.172.029-.261 0-2.061-1.678-3.739-3.74-3.739h-.282c-.86 0-1.701.3-2.367.845zm16.855 4.512h4.904l-6.119 6.121c-.559.559-1.332.879-2.121.879h-1.412c1.514-1.565 3.332-3.887 4.748-7zm8.025-2h-7.207c.814-2.298 1.364-4.968 1.468-8h8.001c-.149 2.789-.924 5.524-2.262 8zm-5.726-10c-.101-3.043-.651-5.702-1.455-8h7.204c1.298 2.403 2.071 5.12 2.222 8zm-2.251-10c-1.61-3.572-3.774-6.1-5.481-7.702 5.022.87 9.368 3.709 12.217 7.702zm-17.523-13 4.796-5.481 4.796 5.481h-1.796v3.051c-2.095.099-4.108.503-6 1.175v-4.226zm5.55 5.298c-1.706 1.602-3.871 4.13-5.481 7.702h-6.736c2.848-3.992 7.194-6.832 12.217-7.702zm-13.754-3.298v9.721c-.769 1.062-1.438 2.196-2 3.393v-13.114zm-10 4h2v10h-2zm11.547 29h1.763l-1.081.885c-.235-.291-.466-.583-.682-.885zm-11.547 17h-8v-14h3v8h2v-8h3zm45.474-13.889-8.373 8.373c-.396.396-.896.672-1.443.799l-11.439 2.64c-.221.052-.448.077-.675.077h-21.544v-10h8.357l10.52-8.607c.31-.253.7-.393 1.101-.393h.282c.96 0 1.74.78 1.74 1.739 0 .509-.222.991-.607 1.322l-6.393 5.479v1.995l2.438 1.625c.824.55 1.783.84 2.772.84h10.132c1.335 0 2.591-.521 3.535-1.465l6.998-7c.683-.682 1.902-.687 2.589 0 .347.346.536.805.536 1.303 0 .482-.187.934-.526 1.273zm-5.474-30.572v-7.539h-1.796l4.796-5.481 4.796 5.481h-1.796v15.114c-1.395-2.969-3.454-5.56-6-7.575z"/></svg>