<svg id="Layer_5" enable-background="new 0 0 64 64" height="512" viewBox="0 0 64 64" width="512" xmlns="http://www.w3.org/2000/svg"><g><g><g><path d="m4 6h40v8h-40z" fill="#ccd1d9"/></g><g><path d="m4 18h15.41c-3.2 1.47-5.58 4.43-6.23 8h-9.18z" fill="#ccd1d9"/></g><g><path d="m44 18v8h-9.18c-.65-3.57-3.03-6.53-6.23-8z" fill="#ccd1d9"/></g><g><path d="m44 30v8h-15.41c3.2-1.47 5.58-4.43 6.23-8z" fill="#ccd1d9"/></g><g><path d="m19.41 38h-15.41v-8h9.18c.65 3.57 3.03 6.53 6.23 8z" fill="#ccd1d9"/></g><g><path d="m44 42v4h-3-2-18l-2 4h-15v-8h38z" fill="#ccd1d9"/></g><g><path d="m19 50-2 4h-4-1-9c-.55 0-1-.45-1-1v-2c0-.55.45-1 1-1h1z" fill="#aab2bd"/></g><g><path d="m42 42h-38-1c-.55 0-1-.45-1-1v-2c0-.55.45-1 1-1h1 15.41c1.39.64 2.95 1 4.59 1s3.2-.36 4.59-1h15.41 1c.55 0 1 .45 1 1v2c0 .55-.45 1-1 1h-1z" fill="#aab2bd"/></g><g><path d="m4 26h9.18c-.12.65-.18 1.32-.18 2s.06 1.35.18 2h-9.18-1c-.55 0-1-.45-1-1v-2c0-.55.45-1 1-1z" fill="#aab2bd"/></g><g><path d="m44 30h-9.18c.12-.65.18-1.32.18-2s-.06-1.35-.18-2h9.18 1c.55 0 1 .45 1 1v2c0 .55-.45 1-1 1z" fill="#aab2bd"/></g><g><path d="m24 17c-1.64 0-3.2.36-4.59 1h-15.41-1c-.55 0-1-.45-1-1v-2c0-.55.45-1 1-1h1 40 1c.55 0 1 .45 1 1v2c0 .55-.45 1-1 1h-1-15.41c-1.39-.64-2.95-1-4.59-1z" fill="#aab2bd"/></g><g><path d="m46 3v2c0 .55-.45 1-1 1h-1-40-1c-.55 0-1-.45-1-1v-2c0-.55.45-1 1-1h42c.55 0 1 .45 1 1z" fill="#aab2bd"/></g><g><path d="m30 54-4 8h-18v-1l4-7h1 4z" fill="#ffc729"/></g><g><path d="m48 54-4 8-4-8z" fill="#ffc729"/></g><g><path d="m40 54 4 8h-18l4-8h1 4z" fill="#fcd770"/></g><g><path d="m62 61v1h-18l4-8h5 5z" fill="#fcd770"/></g><g><path d="m39 46-4 8h-4-1-13l2-4 2-4z" fill="#ffc729"/></g><g><path d="m49 46 4 8h-5-8-5l4-8h2 3z" fill="#fcd770"/></g><g><path d="m19.41 18c1.39-.64 2.95-1 4.59-1s3.2.36 4.59 1c3.2 1.47 5.58 4.43 6.23 8 .12.65.18 1.32.18 2s-.06 1.35-.18 2c-.65 3.57-3.03 6.53-6.23 8-1.39.64-2.95 1-4.59 1s-3.2-.36-4.59-1c-3.2-1.47-5.58-4.43-6.23-8-.12-.65-.18-1.32-.18-2s.06-1.35.18-2c.65-3.57 3.03-6.53 6.23-8z" fill="#e6e9ed"/></g><g><path d="m28 30.85v.15c0 1.1-.45 2.1-1.17 2.83-.73.72-1.73 1.17-2.83 1.17-2.21 0-4-1.79-4-4v-.15c0-.56.12-1.11.34-1.63l3.66-8.22 3.66 8.22c.22.52.34 1.07.34 1.63z" fill="#69d6f4"/></g></g><g><path d="m58.58 53h-4.962l-4-8h-4.618v-2c1.103 0 2-.897 2-2v-2c0-1.103-.897-2-2-2v-6c1.103 0 2-.897 2-2v-2c0-1.103-.897-2-2-2v-6c1.103 0 2-.897 2-2v-2c0-1.103-.897-2-2-2v-6c1.103 0 2-.897 2-2v-2c0-1.103-.897-2-2-2h-42c-1.103 0-2 .897-2 2v2c0 1.103.897 2 2 2v6c-1.103 0-2 .897-2 2v2c0 1.103.897 2 2 2v6c-1.103 0-2 .897-2 2v2c0 1.103.897 2 2 2v6c-1.103 0-2 .897-2 2v2c0 1.103.897 2 2 2v6c-1.103 0-2 .897-2 2v2c0 1.103.897 2 2 2h7.277l-3.277 5.734v2.266h56v-2.266zm-7.198 0h-4-6.764-4l3-6h1.382 7.382zm-29.764-6h15.764l-3 6h-3.382-1.618-10.764zm9.382 8h2.382 6l3 6h-14.764l3-6zm10.618 0h4.764l-2.382 4.764zm1.382-18h-11.089c1.777-1.564 3.084-3.64 3.694-6h7.395zm-29-9c0-5.514 4.486-10 10-10s10 4.486 10 10-4.486 10-10 10-10-4.486-10-10zm31 1h-9.051c.028-.331.051-.662.051-1s-.023-.669-.051-1h9.051zm-2-4h-7.395c-.611-2.359-1.917-4.436-3.694-6h11.089zm-40-22h42l.001 2h-42.001zm2 4h38v6h-38zm-2 8h42v2h-16.219c-1.466-.64-3.081-1-4.781-1s-3.315.36-4.781 1h-16.219zm2 4h11.089c-1.777 1.564-3.084 3.641-3.694 6h-7.395zm-2 8h9.051c-.028.331-.051.662-.051 1s.023.669.051 1h-9.051zm2 4h7.395c.611 2.36 1.917 4.436 3.694 6h-11.089zm-2 8h16.218c1.466.64 3.082 1 4.782 1s3.315-.36 4.782-1h16.218v2h-42zm2 4h38v2h-2-2.618-18l-2 4h-13.382zm-2 10v-2h14.382l-1 2h-3.382-1.58zm9.58 2h.42 15.382l-3 6h-16.23zm33.038 6 3-6h6 2.802l3.428 6z"/><path d="m29 31v-.151c0-.703-.145-1.386-.431-2.031l-4.569-10.28-4.569 10.28c-.286.644-.431 1.328-.431 2.031v.151c0 2.757 2.243 5 5 5s5-2.243 5-5zm-8 0v-.151c0-.422.087-.832.258-1.218l2.742-6.169 2.741 6.168c.172.387.259.797.259 1.219v.151c0 1.654-1.346 3-3 3s-3-1.346-3-3z"/></g></g></svg>