<svg height="512" viewBox="0 0 512 512" width="512" xmlns="http://www.w3.org/2000/svg"><g id="FILLED_OUTLINE"><path d="m46.82947 280.32349-18.17438 44.42627c-20.07483 49.07202 26.63727 114.61962 104.33441 146.40478s156.957 17.77149 177.03186-31.30029l18.17444-44.42625z" fill="#00b378"/><path d="m203.95905 487.83154 24.74945-60.49954-14.8086-6.05762-26.53222 64.85718q8.41562 1.21109 16.59137 1.69998z" fill="#46c89d"/><path d="m125.63507 468.0033q3.62906 1.62523 7.35443 3.15124 3.72583 1.52417 7.45435 2.90686l29.12842-71.20251-14.8086-6.0586z" fill="#46c89d"/><path d="m70.68024 433.30859q6.16854 5.3705 13.02594 10.416l28.73913-70.251-14.80859-6.05859z" fill="#46c89d"/><path d="m46.57568 407.71558 25.40479-62.10083-14.80859-6.05762-21.2096 51.8457a133.23843 133.23843 0 0 0 10.6134 16.31275z" fill="#46c89d"/><ellipse cx="187.513" cy="337.876" fill="#46c89d" rx="96" ry="152" transform="matrix(.379 -.926 .926 .379 -196.206 383.497)"/><path d="m248.79248 311.71777a31.79183 31.79183 0 0 0 -17.39355-17.24218l-7.5766-3.09949 5.76068-14.08118-14.8086-6.05859-5.76086 14.08154-14.63715-5.98787 6.05817-14.809-14.80857-6.05811-6.05825 14.80911-14.80847-6.0581-6.0586 14.80859 14.809 6.05823-30.29052 74.04382-14.80848-6.0581-6.05863 14.80856 14.809 6.05823-6.058 14.80847 14.80859 6.05859 6.05817-14.809 14.80865 6.05811-6.05823 14.80847 14.8086 6.05859 6.05841-14.80883 7.40448 3.02905a32.00012 32.00012 0 0 0 41.62644-41.99268c-.26458-.63086-.55413-1.24621-.85492-1.854a31.94552 31.94552 0 0 0 19.02924-42.57227zm-32.876 62.85987a16.02041 16.02041 0 0 1 -20.8667 8.75048l-37.022-15.1455 12.11609-29.61731 37.0221 15.14514a16.00042 16.00042 0 0 1 8.75048 20.86719zm18.17432-44.42627a16.02066 16.02066 0 0 1 -20.8667 8.75049l-37.0221-15.14527 12.11627-29.6178 37.022 15.14539a16.00041 16.00041 0 0 1 8.75049 20.86719z" fill="#00b378"/><path d="m464.26334 355.7622-36.49781 31.17546c-40.31437 34.43547-117.19511 10.60561-171.71793-53.22548s-66.04106-143.49187-25.72668-177.92733l36.49781-31.17547" fill="#e5707f"/><path d="m300.19824 284.4668-50.05688 42.04675q2.86687 3.62787 5.90625 7.19861 2.18481 2.55762 4.41943 5.02331l50.02222-42.0177z" fill="#f78f9c"/><path d="m296.4856 371.16748q6.89977 4.97406 13.92138 9.20154l45.43726-38.16638-10.291-12.251z" fill="#f78f9c"/><path d="m360.91064 400.63379 47.74707-40.10645-10.291-12.251-56.20911 47.21435a135.04559 135.04559 0 0 0 18.75304 5.1431z" fill="#f78f9c"/><ellipse cx="365.673" cy="240.163" fill="#f78f9c" rx="96" ry="152" transform="matrix(.765 -.644 .644 .765 -68.729 292.024)"/><path d="m239.08929 486.47131a133.22251 133.22251 0 0 0 19.004-4.19677l23.0874-56.43567-14.80859-6.0586z" fill="#46c89d"/><path d="m308.20215 89.71857-29.09-38.18073-241.81125 184.23716 29.0901 38.18069c32.132 42.17322 112.31146 35.11853 179.08576-15.7572 66.77434-50.87561 94.85747-126.30664 62.72539-168.47992z" fill="#3f589e"/><path d="m318.4585 155.98224-39.9878-52.48419-12.72656 9.69629 46.70239 61.29724a133.22274 133.22274 0 0 0 6.01197-18.50934z" fill="#576cd3"/><path d="m295.817 205.467-47.27014-62.04169-12.72657 9.69629 50.12378 65.787q5.30861-6.6412 9.87293-13.4416z" fill="#576cd3"/><path d="m207.54248 195.20947-12.72656 9.69629 44.21765 58.03589q3.24-2.30493 6.44318-4.74316 3.202-2.4397 6.28332-4.95331z" fill="#576cd3"/><path d="m151.19678 226.85938-12.72657 9.69628 42.80488 56.1814q7.75551-2.59624 15.58007-5.95117z" fill="#576cd3"/><path d="m94.14307 231.17871-12.72657 9.69629 46.1388 60.557a133.22341 133.22341 0 0 0 19.44116-.88343z" fill="#576cd3"/><ellipse cx="158.207" cy="143.656" fill="#576cd3" rx="152" ry="96" transform="matrix(.795 -.606 .606 .795 -54.698 125.268)"/><path d="m240.931 80.628-116.663 18.484-48.786 107.573 116.663-18.484z" fill="#92afef"/><path d="m32.33887 100.4624-13.27832-8.92578c13.42871-19.97705 31.45068-38.85937 52.11767-54.605a246.972 246.972 0 0 1 28.91358-19.00779l7.8164 13.96094a231.00929 231.00929 0 0 0 -27.0332 17.77343c-19.28955 14.6968-36.07324 32.26465-48.53613 50.8042z" fill="#92afef"/><path d="m464.4126 164.832c-2.356-3.10791-4.83008-6.207-7.353-9.21094-23.6875-28.20019-52.856-49.54248-82.13232-60.0957l5.42572-15.05173c31.89062 11.49512 63.4834 34.52832 88.958 64.85645 2.69384 3.207 5.33593 6.5166 7.85253 9.83691z" fill="#ffc7d3"/><path d="m358.32715 90.74023a103.89489 103.89489 0 0 0 -14.85156-2.104l1.04882-15.96582a119.994 119.994 0 0 1 17.14844 2.42334z" fill="#ffc7d3"/><path d="m360.10547 448.07471-.21094-15.999 1.07276-.01611c4.8081-.084 9.65185-.31689 14.40283-.69238l1.25976 15.95019c-5.07568.40088-10.24853.64991-15.37549.73926z" fill="#bdecdc"/><path d="m393.17432 445.44238-2.34864-15.82715c25.91846-3.8457 49.78125-12.0747 69.00977-23.79785l8.3291 13.66114c-21.04101 12.82812-46.97217 21.80615-74.99023 25.96386z" fill="#bdecdc"/><path d="m124.268 99.112 8.485 63.938 108.178-82.422z" fill="#7f9ae5"/><path d="m132.753 163.05-57.271 43.635 116.663-18.484z" fill="#7f9ae5"/><path d="m132.753 163.05 59.392 25.151 48.786-107.573z" fill="#6c85e0"/><path d="m434.28394 234.52405a24.00243 24.00243 0 0 0 -40.16211 5.363l-21.08277-6.15705-2.42529-21.82959a23.99816 23.99816 0 1 0 -16.25671-1.4223l2.89587 26.06427-10.02271 8.4187a23.99991 23.99991 0 1 0 10.29078 12.2512l10.0227-8.41882 25.17261 7.35156a24.00044 24.00044 0 1 0 41.56763-21.621z" fill="#d66376"/><g fill="#2c3f68"><path d="m75.48047 214.68506a7.994 7.994 0 0 0 1.25293-.09863l116.6636-18.48438a7.99968 7.99968 0 0 0 6.03369-4.59717l48.7866-107.57275a8.00009 8.00009 0 0 0 -8.5376-11.20557l-116.66358 18.48438a7.99968 7.99968 0 0 0 -6.03369 4.59717l-48.78662 107.57275a8.0002 8.0002 0 0 0 7.28467 11.3042zm58.42753-42.45831 29.38782 12.44488-57.72638 9.1463zm4.96191-23.89478-5.645-42.53882 77.61866-12.29809zm-14.65832 11.16827-28.33854 21.59119 24.14013-53.22827zm63.86975 18.29181-39.5152-16.73346 71.97386-54.83715z"/><path d="m80.875 49.6582a231.00929 231.00929 0 0 1 27.0332-17.77343l-7.8164-13.96094a246.972 246.972 0 0 0 -28.91358 19.00781c-20.667 15.74561-38.689 34.62793-52.11767 54.605l13.27832 8.92578c12.46289-18.53957 29.24658-36.10742 48.53613-50.80422z"/><path d="m494.71143 277.47266c-4.78272-35.124-22.32666-72.21827-49.40088-104.44971-35.011-41.68079-80.26526-68.53925-121.68811-72.40131a70.65344 70.65344 0 0 0 -9.057-15.751l-29.08985-38.1807c-17.26368-22.65869-46.958-33.35937-83.6167-30.13574-35.31153 3.10693-73.19825 18.8667-106.68067 44.37744-33.48291 25.51025-58.73388 57.855-71.10156 91.07568-12.83936 34.48633-10.40283 65.957 6.86082 88.61573l16.72237 21.94787a70.038 70.038 0 0 0 -8.23456 14.72351l-18.17429 44.42627c-10.78614 26.36524-4.96436 57.38916 16.39209 87.35694 20.57226 28.86767 53.35791 53.54345 92.31738 69.48144 28.42969 11.63037 57.77148 17.63819 85.12207 17.63721a169.20722 169.20722 0 0 0 29.42383-2.49268c36.23681-6.40673 62.13379-24.45507 72.91943-50.82031l17.07947-41.75049q4.56079 1.77027 9.13684 3.23487a123.50135 123.50135 0 0 0 37.40089 6.24462c19.71582 0 37.1206-5.83056 50.78906-17.312l36.75391-30.87256c21.81203-18.32129 31.0903-48.49219 26.12546-84.95508zm-227.92017 55.95092 24.49414-20.57458a238.00971 238.00971 0 0 0 35.73169 32.67309l-24.13965 20.27674a220.1896 220.1896 0 0 1 -36.08618-32.37525zm-10.28626-12.25558q-5.005-6.39441-9.50964-13.07117c-.348-.60315-.71405-1.19861-1.10376-1.78284l-.0697.04651a214.89956 214.89956 0 0 1 -15.679-27.92688q10.29191-6.353 20.18183-13.87158 2.57875-1.96471 5.08606-3.98706a236.54437 236.54437 0 0 0 25.585 40.02185zm-22.41418 8.9834a16.00034 16.00034 0 0 1 -20.86468 8.75146l-.002-.001-37.02191-15.14527 9.8974-24.1936a218.31022 218.31022 0 0 0 30.09437-13.15199 227.50324 227.50324 0 0 0 17.292 30.32483 15.99 15.99 0 0 1 .60482 13.41554zm-18.228 32.18017a15.99993 15.99993 0 0 1 -20.813 20.99658l-37.02191-15.1455 12.11621-29.61719 37.02192 15.145a15.89439 15.89439 0 0 1 8.69675 8.62108zm-113.85452-91.0093c.85559 0 1.71875-.01294 2.58374-.02942l16.57596 21.75573c-21.09033-1.936-37.899-10.14038-48.41358-23.94116l-1.38708-1.82055a111.66468 111.66468 0 0 0 30.64096 4.0354zm40.2334 21.67919c-.31537.02771-.626.04712-.94006.07251l-17.80646-23.37085a182.60472 182.60472 0 0 0 33.81219-8.42382l18.857 24.75a158.15774 158.15774 0 0 1 -33.92267 6.97216zm72.553-61.873 19.38666 25.44525a220.21533 220.21533 0 0 1 -42.30736 23.67458l-19.106-25.07684a237.998 237.998 0 0 0 42.02668-24.04297zm32.11316 15.74884-19.38666-25.44519a238.01362 238.01362 0 0 0 34.33551-34.13782l19.1062 25.0766a220.21926 220.21926 0 0 1 -34.05507 34.50643zm43.79846-48.118-18.85718-24.74976a182.63223 182.63223 0 0 0 17.09644-30.36358l17.80615 23.37066c-.10791.29608-.20911.59046-.31958.88721a158.15794 158.15794 0 0 1 -15.72585 30.85545zm21.36548-51.16-16.57422-21.75378a113.25541 113.25541 0 0 0 4.95591-33.09652l1.38538 1.81836c10.51489 13.80038 13.9646 32.18447 10.23291 53.03188zm-273.001 9.9906c11.32666-30.4229 34.69629-60.23052 65.80371-83.9317 31.10791-23.70068 66.04883-38.32031 98.38672-41.166q5.70337-.50172 11.11035-.5c25.77051 0 46.25488 8.48388 58.37744 24.394 13.8169 18.13525 15.44825 44.18018 4.59327 73.33691-11.32667 30.42286-34.69629 60.23047-65.80372 83.93165-31.10791 23.70068-66.04882 38.32031-98.38671 41.166-30.98886 2.72648-55.65886-5.75582-69.47852-23.88234l-.00928-.01215-.00024.00018c-13.81671-18.13513-15.44794-44.18005-4.59302-73.33661zm20.957 121.21387c15.24854 20.01465 40.1919 30.69922 71.07031 30.69922q6.11938 0 12.5459-.56348a165.60457 165.60457 0 0 0 22.83924-3.68286l-23.2641 56.86792-14.80854-6.0581-6.05856 14.80853 14.809 6.05823-6.058 14.80847 14.80859 6.05859 6.05817-14.80883 14.80865 6.058-6.05823 14.80847 14.8086 6.05859 6.05841-14.80883 7.40448 3.02905a32.00012 32.00012 0 0 0 41.62644-41.99274c-.26458-.63086-.55413-1.24621-.85492-1.854a31.90864 31.90864 0 0 0 18.84424-17.43848c.22876.27466.45087.55213.68109.82617 20.67444 24.613 45.10267 44.23316 70.53333 56.93506-9.20935 19.90784-30.37415 33.68384-59.92639 38.90918-31.9668 5.65186-69.50635.60987-105.70215-14.19775-36.19678-14.80811-66.50635-37.522-85.34619-63.9585-18.05617-25.33687-23.2461-50.91109-14.61328-72.01268a53.67153 53.67153 0 0 1 3.69079-7.3097zm80.7508 152.18262-12.11225 29.60705a220.20074 220.20074 0 0 1 -41.8482-24.476l11.9367-29.17871a238.0195 238.0195 0 0 0 42.02378 24.0476zm14.8143 6.04461a238.04292 238.04292 0 0 0 46.82342 12.31372l-11.93726 29.18a220.19764 220.19764 0 0 1 -47.004-11.87317zm-119.53333-109.2517.86542-2.11548a113.2532 113.2532 0 0 0 13.38232 30.67261l-10.35473 25.31176c-9.01819-19.16247-10.46204-37.81103-3.89301-53.86889zm14.61328 72.0127c-.18384-.25793-.358-.51611-.53918-.774l11.12463-27.19329a182.61951 182.61951 0 0 0 24.39612 24.88037l-11.78119 28.79834a158.15241 158.15241 0 0 1 -23.20038-25.71142zm156.47864 80.2351 11.78357-28.8042c4.82214.35571 9.60321.54712 14.32178.54712a174.58269 174.58269 0 0 0 20.51654-1.19251l-11.12586 27.19666c-.30993.05688-.615.1189-.92682.17407a158.14674 158.14674 0 0 1 -34.56921 2.07886zm54.93225-7.50659 10.35486-25.312a113.25137 113.25137 0 0 0 31.04382-12.49878l-.86523 2.115c-6.56946 16.05833-20.67019 28.34827-40.53345 35.69578zm54.85364-97.63651 23.82483-20.01245a182.60123 182.60123 0 0 0 31.14172 15.63281l-22.49707 18.89722c-.3009-.09375-.59973-.18091-.90149-.2771a158.14938 158.14938 0 0 1 -31.56799-14.24048zm104.60362 6.16532c-13.28492 11.15918-31.48438 15.479-52.4856 12.743l20.94092-17.58985a117.09784 117.09784 0 0 0 27.801 3.53724c1.85938 0 3.691-.069 5.50806-.17261zm36.7539-30.87256c-17.458 14.66357-43.39551 17.53027-73.03564 8.07519-30.92676-9.8667-61.81153-31.79248-86.96533-61.73779a221.65525 221.65525 0 0 1 -30.344-46.70209c24.71655-22.7019 43.38574-49.22143 53.47681-76.32574 7.49292-20.126 9.77368-39.221 6.95032-56.14081 35.27343 5.55981 74.5979 30.15271 104.68249 65.96844 25.15332 29.94532 41.41846 64.15137 45.79785 96.31739 4.19778 30.82765-3.10496 55.88135-20.56248 70.54541z"/><path d="m418.6792 218.08057a32.02834 32.02834 0 0 0 -32.30762 19.543l-13.33252-3.89357-1.5332-13.79938a32.008 32.008 0 1 0 -16.15881-.54248l1.90576 17.15369-3.61829 3.03906a31.97455 31.97455 0 1 0 10.29126 12.25177l3.61829-3.03912 16.56653 4.83807a32.01971 32.01971 0 0 0 29.02368 28.20874q1.41944.123 2.82715.123a31.76 31.76 0 0 0 20.52734-7.50049v.00049a32.00021 32.00021 0 0 0 -17.80957-56.38281zm-66.47852-19.08643a16.00074 16.00074 0 1 1 10.86524 5.64893 15.89661 15.89661 0 0 1 -10.86524-5.64893zm-1.21289 68.0332a15.99872 15.99872 0 1 1 -15.96679-17.38769c.46875 0 .94091.02051 1.41357.06152a15.99928 15.99928 0 0 1 14.55322 17.32617zm80.85889-15.68066a15.893 15.893 0 0 1 -5.64893 10.86475v.00048a16.00011 16.00011 0 1 1 -10.31836-28.25291q.70386 0 1.41358.06153a16.0001 16.0001 0 0 1 14.55371 17.32617z"/><path d="m457.05957 155.62109c2.52295 3.00391 4.99707 6.103 7.353 9.21094l12.751-9.665c-2.5166-3.32031-5.15869-6.62988-7.85253-9.83691-25.47461-30.32813-57.06739-53.36133-88.958-64.85645l-5.42578 15.05176c29.27635 10.55318 58.44481 31.89547 82.13231 60.09566z"/><path d="m361.67285 75.09375a119.994 119.994 0 0 0 -17.14844-2.42334l-1.04882 15.96582a103.89489 103.89489 0 0 1 14.85156 2.104z"/><path d="m360.96729 432.05957-1.07276.01611.21094 15.999 1.14892-.01807c5.127-.08935 10.29981-.33838 15.37549-.73926l-1.25976-15.95019c-4.75098.37552-9.59473.60843-14.40283.69241z"/><path d="m390.82568 429.61523 2.34864 15.82715c28.01806-4.15771 53.94922-13.13574 74.99023-25.96386l-8.3291-13.66114c-19.22852 11.72315-43.09131 19.95215-69.00977 23.79785z"/></g></g></svg>