<svg id="_x33_0" enable-background="new 0 0 64 64" height="512" viewBox="0 0 64 64" width="512" xmlns="http://www.w3.org/2000/svg"><g><g><g><path d="m42 32h20v30h-20z" fill="#dfb28b"/></g><g><path d="m2 32h20v30h-20z" fill="#dfb28b"/></g><g><path d="m22 26v6h-20v-6h4v2h4v-2h4v2h4v-2z" fill="#cf9e76"/></g><g><path d="m62 26v6h-20v-4-2h4v2h4v-2h4v2h4v-2z" fill="#cf9e76"/></g><g><path d="m18 58h4v4h-4z" fill="#b27946"/></g><g><path d="m6 52h8v4h-8z" fill="#b27946"/></g><g><path d="m2 38h8v4h-8z" fill="#b27946"/></g><g><path d="m16 44h6v4h-6z" fill="#b27946"/></g><g><path d="m54 36h8v4h-8z" fill="#b27946"/></g><g><path d="m42 42h6v4h-6z" fill="#b27946"/></g><g><path d="m50 52h8v4h-8z" fill="#b27946"/></g><g><path d="m42 58h4v4h-4z" fill="#b27946"/></g><g><path d="m6 14v6l-4-3z" fill="#ff826e"/></g><g><path d="m14 14v6l-4-3z" fill="#ff826e"/></g><g><path d="m58 14v6l-4-3z" fill="#ff826e"/></g><g><path d="m50 14v6l-4-3z" fill="#ff826e"/></g><g><path d="m45 2v10h-26v-10h6v4h4v-4h6v4h4v-4z" fill="#aab2bd"/></g><g><path d="m45 12-3 6h-20l-3-6z" fill="#ccd1d9"/></g><g><path d="m22 18h20v44h-20z" fill="#e6e9ed"/></g><g><path d="m22 22h6v4h-6z" fill="#ccd1d9"/></g><g><path d="m34 28h8v4h-8z" fill="#ccd1d9"/></g><g><path d="m26 36h6v4h-6z" fill="#ccd1d9"/></g><g><path d="m36.24 47.76c-1.08-1.09-2.58-1.76-4.24-1.76-3.31 0-6 2.69-6 6v10h6 6v-10c0-1.66-.67-3.16-1.76-4.24z" fill="#fcd770"/></g></g><g><path d="m59 25v-13l-6.667 5 4.667 3.5v6.5h-2v-2h-4v-13l-6.667 5 4.667 3.5v6.5h-2v-2h-4v-6.764l3-6v-11.236h-8v4h-2v-4h-8v4h-2v-4h-8v11.236l3 6v6.764h-4v2h-2v-15l-6.667 5 4.667 3.5v4.5h-4v2h-2v-15l-6.667 5 4.667 3.5v4.5h-4v38h62v-38zm-3.333-8 1.333-1v2zm-8 0 1.333-1v2zm-2.667 10v2h6v-2h2v2h6v-2h2v4h-18v-4zm0 34h-2v-2h2zm-2-18h4v2h-4zm-2 18h-2v-9c0-3.859-3.14-7-7-7s-7 3.141-7 7v9h-2v-34h6v-6h-6v-2h18v8h-8v6h8zm-10 0h-4v-9c0-2.414 1.721-4.434 4-4.899zm2-13.899c2.279.465 4 2.484 4 4.899v9h-4zm-12-.101h-4v-2h4zm0 14h-2v-2h2zm2-38h4v2h-4zm12 8v-2h6v2zm-11-28v4h6v-4h4v4h6v-4h4v8h-24v-8zm-3.382 10h22.764l-2 4h-18.764zm-8.951 4 1.333-1v2zm-8 0 1.333-1v2zm1.333 10v2h6v-2h2v2h6v-2h2v4h-18v-4zm-2 12h6v2h-6zm0 4h8v-6h-8v-4h18v10h-6v6h6v8h-4v4h-14zm44 18v-4h-4v-10h6v-6h-6v-8h18v2h-8v6h8v20zm14-24v2h-6v-2z"/><path d="m5 57h10v-6h-10zm2-4h6v2h-6z"/><path d="m49 57h10v-6h-10zm2-4h6v2h-6z"/><path d="m25 41h8v-6h-8zm2-4h4v2h-4z"/></g></g></svg>