<svg id="Capa_1" enable-background="new 0 0 511.999 511.999" height="512" viewBox="0 0 511.999 511.999" width="512" xmlns="http://www.w3.org/2000/svg"><g><g><path d="m478.158 20.672-81.722 29.026c-14.31 5.083-17.751 23.75-6.194 33.601l15.599 13.296-52.275 61.33-80.124-74.205c-4.966-4.599-11.715-6.763-18.427-5.907-6.713.855-12.704 4.639-16.359 10.335l-82.298 128.249-71.664-65.584c-9.317-8.526-23.782-7.886-32.309 1.432-8.527 9.317-7.886 23.782 1.431 32.309l91.69 83.91c4.242 3.881 9.759 5.998 15.439 5.998.982 0 1.97-.063 2.955-.192 6.688-.871 12.65-4.65 16.292-10.326l82.21-128.111 77.571 71.842c4.57 4.232 10.666 6.419 16.886 6.05 6.218-.367 12.017-3.254 16.058-7.994l67.733-79.466 15.603 13.299c11.557 9.851 29.444 3.496 32.196-11.439l15.712-85.291c2.749-14.933-11.695-27.244-26.003-22.162z" fill="#b3e59f"/><g><path d="m504.499 254.281c0 137.24-111.259 248.5-248.5 248.5s-248.5-111.26-248.5-248.5z" fill="#80b4fb"/><path d="m316.571 495.333c-19.383 4.861-39.665 7.436-60.56 7.436-137.253 0-248.513-111.248-248.513-248.488h121.12c.001 116.371 79.968 214.033 187.953 241.052z" fill="#61a2f9"/></g><g><circle cx="178.734" cy="85.546" fill="#f6e266" r="76.327"/><path d="m197.268 159.617c-5.931 1.479-12.135 2.26-18.531 2.26-42.158 0-76.33-34.173-76.33-76.33 0-42.158 34.173-76.33 76.33-76.33 6.396 0 12.601.781 18.531 2.26-33.214 8.273-57.813 38.295-57.813 74.07s24.599 65.797 57.813 74.07z" fill="#ffd064"/></g></g><g><path d="m511.998 254.278c0-4.142-3.357-7.5-7.5-7.5h-304.384l63.76-99.36 71 65.765c6.029 5.58 14.205 8.51 22.431 8.032 8.214-.489 15.985-4.36 21.322-10.622l31.71-37.2c2.687-3.152 2.31-7.886-.843-10.573-3.153-2.689-7.887-2.31-10.573.842l-31.71 37.201c-2.702 3.17-6.638 5.13-10.785 5.377-4.162.231-8.31-1.241-11.36-4.065l-77.569-71.85c-1.628-1.507-3.842-2.222-6.043-1.937-2.202.28-4.167 1.521-5.366 3.389l-73.797 115h-49.358l-74.053-67.764c-3.028-2.768-4.795-6.55-4.977-10.651-.182-4.102 1.246-8.03 4.019-11.06 5.718-6.249 15.46-6.678 21.713-.961l71.659 65.59c1.632 1.494 3.841 2.194 6.033 1.905 2.193-.286 4.149-1.525 5.344-3.387l34.03-53.034c37.519-8.229 65.71-41.646 65.852-81.567 2.128.676 4.108 1.814 5.79 3.375l80.13 74.21c1.39 1.287 3.211 1.997 5.096 1.997.146 0 .294-.004.442-.013 2.039-.12 3.94-1.067 5.266-2.622l52.269-61.33c2.687-3.152 2.31-7.885-.842-10.572l-15.6-13.3c-3.362-2.868-4.891-7.175-4.088-11.523.803-4.347 3.767-7.824 7.933-9.302l81.717-29.03c4.167-1.477 8.658-.649 12.02 2.215 3.365 2.868 4.896 7.178 4.095 11.528l-15.71 85.29c-.801 4.346-3.766 7.823-7.931 9.302-4.166 1.48-8.662.65-12.029-2.223l-15.6-13.29c-3.153-2.686-7.885-2.308-10.571.843l-16.601 19.47c-2.687 3.152-2.311 7.886.841 10.573 3.151 2.688 7.886 2.311 10.573-.841l11.736-13.766 9.89 8.425c7.49 6.389 17.499 8.236 26.78 4.943 9.277-3.294 15.88-11.04 17.663-20.721l15.71-85.29c1.782-9.683-1.625-19.276-9.116-25.661-7.487-6.381-17.492-8.227-26.77-4.935l-81.717 29.03c-9.274 3.292-15.877 11.036-17.664 20.715-1.786 9.681 1.617 19.273 9.106 25.66l9.894 8.436-42.336 49.674-74.39-68.895c-4.849-4.498-10.952-7.229-17.392-7.916-7.192-38.966-41.398-68.584-82.413-68.584-46.222 0-83.827 37.605-83.827 83.827 0 45.856 37.015 83.209 82.733 83.799l-22.784 35.509-65.096-59.582c-12.359-11.297-31.605-10.443-42.903 1.902-5.478 5.985-8.298 13.745-7.939 21.85.359 8.106 3.854 15.585 9.838 21.057l61.957 56.697h-103.213c-4.142 0-7.5 3.358-7.5 7.5 0 41.692 10.249 83.075 29.641 119.678 18.769 35.429 46.036 66.404 78.852 89.578 3.384 2.389 8.064 1.583 10.453-1.8s1.583-8.063-1.8-10.453c-10.349-7.308-20.095-15.457-29.168-24.294 18.103-17.637 38.591-32.16 61.113-43.306 4.978 17.799 11.019 34.418 18.057 49.489 11.602 24.846 25.286 44.113 40.324 57.175-22.916-4.696-45.093-12.694-65.654-23.778-3.646-1.964-8.195-.604-10.161 3.042s-.604 8.195 3.042 10.161c36.981 19.937 78.873 30.484 121.158 30.507.047 0 .094.003.141.003.063 0 .125-.004.188-.005 68.309-.049 132.522-26.669 180.829-74.975 48.354-48.352 74.983-112.641 74.983-181.023zm-402.091-168.731c0-37.952 30.875-68.827 68.827-68.827s68.827 30.876 68.827 68.827-30.876 68.827-68.827 68.827-68.827-30.876-68.827-68.827zm324.57 330.687c-19.981-19.464-42.706-35.347-67.743-47.36 7.855-32.932 12.24-69.324 12.753-107.096h117.398c-1.752 57.673-23.678 111.871-62.408 154.456zm-286.964-154.456h216.973c-.495 35.591-4.511 69.841-11.691 100.901-30.717-12.564-63.251-18.943-96.795-18.943s-66.078 6.379-96.795 18.942c-7.181-31.059-11.197-65.309-11.692-100.9zm-69.951 154.416c-13.541-14.917-25.249-31.485-34.666-49.26-17.087-32.253-26.632-68.456-27.779-105.156h117.394c.513 37.772 4.898 74.164 12.753 107.097-25.02 12.004-47.731 27.874-67.702 47.319zm103.177 10.629c-6.995-14.979-12.958-31.594-17.83-49.435 29.486-12.365 60.785-18.651 93.09-18.651 32.304 0 63.604 6.286 93.09 18.651-4.871 17.842-10.835 34.456-17.83 49.435-20.575 44.059-47.24 68.358-75.098 68.452-.054 0-.108.002-.162.002-.042 0-.084-.001-.126-.001-27.872-.073-54.55-24.375-75.134-68.453zm164.111 6.347c7.038-15.071 13.079-31.69 18.057-49.489 22.529 11.151 43.024 25.681 61.133 43.326-33.471 32.586-74.766 54.321-119.613 63.422 15.078-13.063 28.796-32.36 40.423-57.259z"/><path d="m185.745 135.189v-4.77c11.774-3.128 19.32-13.243 20.997-23.222 2.181-12.971-4.86-24.692-17.519-29.167-7.234-2.557-15.239-5.649-19.758-9.193-1.559-1.222-2.217-3.859-1.679-6.717.538-2.857 2.463-6.316 6.252-7.457 8.679-2.613 14.409 1.873 15.034 2.393 3.184 2.648 7.911 2.216 10.562-.968 2.649-3.184 2.216-7.913-.968-10.562-1.258-1.046-5.889-4.552-12.922-6.024v-3.595c0-4.142-3.358-7.5-7.5-7.5s-7.5 3.358-7.5 7.5v4.107c-.343.092-.686.183-1.033.288-8.552 2.576-14.938 9.873-16.666 19.042-1.588 8.426 1.156 16.587 7.162 21.298 5.019 3.935 11.976 7.276 24.016 11.532 8.378 2.961 8.194 9.755 7.727 12.538-.941 5.595-5.646 11.641-13.756 11.694-7.795.062-10.239-.335-16.254-4.27-3.467-2.269-8.116-1.295-10.382 2.17-2.268 3.466-1.296 8.115 2.17 10.382 6.447 4.218 11.165 5.875 17.017 6.45v4.052c0 4.142 3.358 7.5 7.5 7.5s7.5-3.359 7.5-7.501z"/></g></g></svg>