<svg height="512" viewBox="0 0 60 60" width="512" xmlns="http://www.w3.org/2000/svg"><g id="Page-1" fill="none" fill-rule="evenodd"><g id="015---Forex-Dollar-Euro" transform="translate(-1 -1)"><g id="Icons" transform="translate(1 1)"><path id="Path" d="m59 43c-.0019881 8.4457313-6.5680863 15.4354497-14.997214 15.9647783-8.4291276.5293286-15.8180681-5.5840474-16.8766166-13.9631796-1.0585484-8.3791323 4.5778875-16.1380238 12.8738306-17.7215987 1.9825768-.3733434 4.0174232-.3733434 6 0 7.5449346 1.4402178 13.0018081 8.0388372 13 15.72z" fill="#ffdc00"/><path id="Path" d="m46 27.28c-.9893614-.1846777-1.9935512-.278402-3-.28-.5 0-1.005.025-1.5.072.508.047 1.009.117 1.5.208 7.8221166 1.4963198 13.3529543 8.5176219 12.9758678 16.4726384s-6.5472846 14.421662-14.4758678 15.1713616c.494.046.994.076 1.5.076 8.2605488.0102553 15.1709887-6.2696135 15.9487809-14.4934696.7777922-8.2238562-4.8327791-15.6879316-12.9487809-17.2265304z" fill="#fec108"/><path id="Path" d="m48.96 10h-2.96v17.28c-1.9825768-.3733434-4.0174232-.3733434-6 0v-17.28h-2.96c-.4130981-.00703392-.7845438-.25323099-.9519448-.63095629s-.1003087-.81827445.1719448-1.12904371l5.97-6.88c.1899799-.22927032.4722463-.36195611.77-.36195611s.5800201.13268579.77.36195611l5.97 6.88c.2722535.31076926.3393458.75131841.1719448 1.12904371s-.5388467.62392237-.9519448.63095629z" fill="#ef314c"/><path id="Path" d="m49.74 8.24-5.97-6.88c-.1899799-.22927032-.4722463-.36195611-.77-.36195611s-.5800201.13268579-.77.36195611l-.73.84 5.24 6.04c.2727096.31402271.3372311.75824555.1651265 1.13687569s-.5492182.62210976-.9651265.62312431h-1.94c-.5522847 0-1 .4477153-1 1v16c1.0064488.001598 2.0106386.0953223 3 .28v-17.28h2.937c.4164514.0001584.794638-.24288185.9675019-.62176164s.1085618-.82380547-.1645019-1.13823836z" fill="#bb193b"/><path id="Path" d="m33 17c.0018081 7.6811628-5.4550654 14.2797822-13 15.72-1.9825768.3733434-4.0174232.3733434-6 0-8.29594312-1.5835749-13.93237903-9.3424664-12.87383056-17.7215987 1.05854846-8.3791322 8.44748895-14.49250822 16.87661656-13.9631796 8.4291277.52932862 14.9952259 7.51904697 14.997214 15.9647783z" fill="#ffdc00"/><path id="Path" d="m17 1c-.506 0-1.006.03-1.5.076 7.9285832.74969957 14.0987813 7.21634511 14.4758678 15.1713616.3770865 7.9550165-5.1537512 14.9763186-12.9758678 16.4726384-.491.091-.992.161-1.5.208.5.047 1 .072 1.5.072 1.0064488-.001598 2.0106386-.0953223 3-.28 8.1160018-1.5385988 13.7265731-9.0026742 12.9487809-17.2265304-.7777922-8.22385612-7.6882321-14.50372493-15.9487809-14.4934696z" fill="#fec108"/><path id="Path" d="m23.74 51.76-5.97 6.88c-.1899799.2292703-.4722463.3619561-.77.3619561s-.5800201-.1326858-.77-.3619561l-5.97-6.88c-.27225347-.3107693-.33934576-.7513184-.1719448-1.1290437.167401-.3777253.5388467-.6239224.9519448-.6309563h2.96v-17.28c1.9825768.3733434 4.0174232.3733434 6 0v17.28h2.96c.4130981.0070339.7845438.253231.9519448.6309563s.1003087.8182744-.1719448 1.1290437z" fill="#ef314c"/><path id="Path" d="m22.96 50h-2.96v-17.28c-.9893614.1846777-1.9935512.278402-3 .28v16c0 .5522847.4477153 1 1 1h1.937c.4159083.0010146.7930219.2444942.9651265.6231243s.1075831.822853-.1651265 1.1368757l-5.237 6.04.73.841c.1899799.2292703.4722463.3619561.77.3619561s.5800201-.1326858.77-.3619561l5.985-6.9c.2688541-.3115097.3316239-.7510861.1607021-1.1253941-.1709218-.3743081-.5442169-.6147623-.9557021-.6156059z" fill="#bb193b"/></g><g id="Icons_copy" fill="#000"><g fill-rule="nonzero"><path id="Shape" d="m48 27.5v-15.5h1.96c.8008915.0033836 1.5278339-.4676374 1.852-1.2.343736-.7349828.2213892-1.60356707-.312-2.215l-5.97-6.875c-.3914427-.42941571-.945344-.67453791-1.5263985-.6754889-.5810546-.00095099-1.1357552.2423568-1.5286015.6704889l-5.975 6.88c-.5331446.61154468-.6554701 1.4799773-.312 2.215.3239597.7325387 1.0510321 1.2036439 1.852 1.2h1.96v15.5c-8.3680264 2.025824-13.9003535 9.9877922-12.8802562 18.5368991s8.2705043 14.9858125 16.8802562 14.9858125 15.8601589-6.4367056 16.8802562-14.9858125-4.5122298-16.5110751-12.8802562-18.5368991zm-7-17.5h-2.975l-.01-.1 6-6.881 5.97 6.881-.025.1h-2.96c-.5522847 0-1 .4477153-1 1v16.128c-1.327872-.1706667-2.672128-.1706667-4 0v-16.128c0-.5522847-.4477153-1-1-1zm3 49c-8.2842712 0-15-6.7157288-15-15s6.7157288-15 15-15 15 6.7157288 15 15c-.0093685 8.2803876-6.7196124 14.9906315-15 15z"/><path id="Shape" d="m14 34.505v15.495h-1.96c-.8009679-.0036439-1.5280403.4674613-1.852 1.2-.34347007.7350227-.22114457 1.6034553.312 2.215l5.97 6.875c.3792733.4502385.9376444.7105137 1.5263396.7114772.5886953.0009635 1.1479153-.2574826 1.5286604-.7064772l5.971-6.88c.5357463-.6113014.6597101-1.4814018.316-2.218-.3248627-.7313653-1.0517416-1.2011676-1.852-1.197h-1.96v-15.495c8.3680264-2.025824 13.9003535-9.9877922 12.8802562-18.5368991-1.0200973-8.54910691-8.2705043-14.98581254-16.8802562-14.98581254s-15.86015888 6.43670563-16.88025619 14.98581254c-1.0200973 8.5491069 4.51222984 16.5110751 12.88025619 18.5368991zm7 17.495h2.975l.01.1-6 6.881-5.97-6.881.025-.1h2.96c.5522847 0 1-.4477153 1-1v-16.128c.6635991.081643 1.3314073.1243827 2 .128.6685927-.0036173 1.3364009-.046357 2-.128v16.128c0 .5522847.4477153 1 1 1zm-3-49c8.2842712 0 15 6.71572875 15 15 0 8.2842712-6.7157288 15-15 15-8.28427125 0-15-6.7157288-15-15 .00936852-8.28038757 6.71961243-14.99063148 15-15z"/><path id="Shape" d="m14 22c0-.5522847-.4477153-1-1-1s-1 .4477153-1 1c0 2.472 2.167 4.526 5 4.925v2.075c0 .5522847.4477153 1 1 1s1-.4477153 1-1v-2.075c2.833-.4 5-2.453 5-4.925s-2.167-4.526-5-4.925v-5.968c1.72.335 3 1.5 3 2.893 0 .5522847.4477153 1 1 1s1-.4477153 1-1c0-2.472-2.167-4.526-5-4.925v-2.075c0-.55228475-.4477153-1-1-1s-1 .44771525-1 1v2.075c-2.833.4-5 2.453-5 4.925s2.167 4.526 5 4.925v5.968c-1.72-.335-3-1.499-3-2.893zm8 0c0 1.394-1.28 2.558-3 2.893v-5.786c1.72.335 3 1.499 3 2.893zm-8-8c0-1.394 1.28-2.558 3-2.893v5.786c-1.72-.335-3-1.499-3-2.893z"/></g><path id="Path" d="m44 37c1.8769264.0340479 3.6147591.996805 4.639 2.57.1983089.3064635.5478488.4805241.911921.4541098s.6848269-.2491063.8368225-.5809852c.1519957-.3318789.1110808-.7202102-.1067435-1.0131246-1.3935213-2.11613-3.7474058-3.4015661-6.281-3.43-3.5526212.1382495-6.6035786 2.5683231-7.533 6h-2.467c-.5522847 0-1 .4477153-1 1s.4477153 1 1 1h2.052c-.032.329-.052.662-.052 1s.02.671.052 1h-2.052c-.5522847 0-1 .4477153-1 1s.4477153 1 1 1h2.467c.9294214 3.4316769 3.9803788 5.8617505 7.533 6 2.5335942-.0284339 4.8874787-1.31387 6.281-3.43.2178243-.2929144.2587392-.6812457.1067435-1.0131246-.1519956-.3318789-.4727503-.5545709-.8368225-.5809852s-.7136121.1476463-.911921.4541098c-1.0242409 1.573195-2.7620736 2.5359521-4.639 2.57-2.4514519-.1040377-4.593784-1.6871392-5.413-4h5.413c.5522847 0 1-.4477153 1-1s-.4477153-1-1-1h-5.932c-.0906659-.663584-.0906659-1.336416 0-2h5.932c.5522847 0 1-.4477153 1-1s-.4477153-1-1-1h-5.413c.819216-2.3128608 2.9615481-3.8959623 5.413-4z"/></g></g></g></svg>