<svg height="512" viewBox="0 0 128 128" width="512" xmlns="http://www.w3.org/2000/svg"><g><g><path d="m59.029 40.691-17.388-18.169a3 3 0 0 0 -1.537-.859l-29.604-6.363 1.891-8.8 30.509 6.557a9 9 0 0 1 4.611 2.577l18.02 18.835z" fill="#fdd82e"/><path d="m104.676 93.467h12v26.75h-12z" fill="#fdd82e" transform="matrix(.918 -.398 .398 .918 -33.362 52.829)"/><path d="m118.68 99.5-11.45-31.62a5.97 5.97 0 0 1 -.03-4l1.81-5.23a6 6 0 0 0 -2.63-7.13l-36.26-21.3a5.989 5.989 0 0 0 -7.28.92l-8.05 8.04a6.017 6.017 0 0 0 -1.42 6.22l22.38 64.23a4.312 4.312 0 0 0 6.07 2.39l15.89-8.37 1.85 4.25a4.29 4.29 0 0 0 5.77 2.18l11.13-5.22a4.293 4.293 0 0 0 2.22-5.36zm-37.91 6.29-11.75-33.72a6.374 6.374 0 0 1 9.09-7.69l3.84 2.12a6.343 6.343 0 0 1 2.94 3.46l10.04 28.38z" fill="#f7502f"/><path d="m30.5 60.6a12 12 0 0 1 -24 0c0-9.2 12-21.54 12-21.54s12 12.34 12 21.54z" fill="#fdd82e"/></g><g fill="#051720"><path d="m123.105 116.034-4.546-10.484a6 6 0 0 0 1.769-6.643l-11.45-31.624a4.26 4.26 0 0 1 -.022-2.832l1.806-5.232a7.775 7.775 0 0 0 -3.4-9.21l-36.257-21.3a7.752 7.752 0 0 0 -9.4 1.2l-5.351 5.347-13.347-13.943a4.754 4.754 0 0 0 -2.44-1.364l-27.889-5.993 1.155-5.377 28.787 6.191a7.284 7.284 0 0 1 3.725 2.07l9.647 10.081a1.75 1.75 0 1 0 2.529-2.42l-9.65-10.084a10.774 10.774 0 0 0 -5.513-3.068l-30.5-6.56a1.748 1.748 0 0 0 -2.079 1.344l-1.89 8.8a1.75 1.75 0 0 0 1.344 2.078l29.591 6.358a1.3 1.3 0 0 1 .652.36l13.4 14-.218.218a7.789 7.789 0 0 0 -1.84 8.034l4.711 13.515a1.75 1.75 0 0 0 3.3-1.152l-4.707-13.518a4.269 4.269 0 0 1 1.009-4.4l8.045-8.04a4.248 4.248 0 0 1 5.156-.658l36.257 21.3a4.264 4.264 0 0 1 1.865 5.051l-1.806 5.232a7.763 7.763 0 0 0 .039 5.167l11.45 31.623a2.541 2.541 0 0 1 -1.315 3.18c-.015.006-.031.008-.046.015s-.05.029-.076.042l-10.769 5.049c-.008 0-.017.005-.025.009s-.028.016-.043.023l-.174.082a2.553 2.553 0 0 1 -3.425-1.294l-1.847-4.257a1.748 1.748 0 0 0 -2.42-.851l-15.888 8.37a2.553 2.553 0 0 1 -3.6-1.419l-11.432-32.794a1.75 1.75 0 0 0 -3.305 1.152l11.428 32.792a6.048 6.048 0 0 0 8.535 3.362l14.217-7.49 1.1 2.527a6.042 6.042 0 0 0 6.575 3.551l4.359 10.045a1.75 1.75 0 0 0 1.606 1.054 1.73 1.73 0 0 0 .7-.145l11.009-4.769a1.747 1.747 0 0 0 .91-2.3zm-11.705 3.166-3.615-8.332 7.7-3.611 3.714 8.564z"/><path d="m63.926 70.371-1.644-4.715a1.75 1.75 0 1 0 -3.3 1.153l1.643 4.714a1.75 1.75 0 1 0 3.305-1.152z"/><path d="m79.488 44.709a1.75 1.75 0 0 0 1.774-3.018l-5.3-3.113a1.75 1.75 0 0 0 -1.773 3.022z"/><path d="m67.367 72.645 11.75 33.716a1.75 1.75 0 0 0 2.467.973l14.16-7.449a1.75 1.75 0 0 0 .835-2.133l-10.039-28.38a8.113 8.113 0 0 0 -3.746-4.41l-3.841-2.111a8.125 8.125 0 0 0 -11.586 9.794zm4.82-6.314a4.617 4.617 0 0 1 2.852-.986h.024l8.378 21.879-1.361 4.36a1.748 1.748 0 0 0 1.149 2.191 1.72 1.72 0 0 0 .522.08 1.748 1.748 0 0 0 1.669-1.228l1.543-4.939a1.746 1.746 0 0 0 -.036-1.148l-7.427-19.397 1.61.885a4.628 4.628 0 0 1 2.133 2.512l9.534 26.952-11.022 5.8-11.081-31.8a4.623 4.623 0 0 1 1.513-5.161z"/><path d="m18.5 37.306a1.75 1.75 0 0 0 -1.255.53c-.074.077-1.865 1.923-4.082 4.734a1.75 1.75 0 0 0 2.748 2.168c.993-1.259 1.9-2.322 2.588-3.094 2.983 3.364 10.251 12.248 10.251 18.956a10.25 10.25 0 1 1 -20.5 0c0-2.531 1.066-5.664 3.169-9.314a1.75 1.75 0 0 0 -3.033-1.748c-2.412 4.185-3.636 7.906-3.636 11.062a13.75 13.75 0 1 0 27.5 0c0-9.8-11.985-22.236-12.495-22.76a1.75 1.75 0 0 0 -1.255-.534z"/></g></g></svg>