<svg id="Capa_1" enable-background="new 0 0 511.259 511.259" height="512" viewBox="0 0 511.259 511.259" width="512" xmlns="http://www.w3.org/2000/svg"><g><g><g><path d="m439.017 349.569c-35.012 67.829-106.275 111.852-183.39 111.53-49.14 0-94.27-17.17-129.71-45.84-22.12-17.88-40.47-40.23-53.67-65.69z" fill="#a0c8ff"/></g><g><path d="m439.016 159.68h-366.769c34.366-66.258 103.589-111.522 183.379-111.522s149.014 45.264 183.39 111.522z" fill="#a0c8ff"/></g><g><path d="m439.45 349.572h-367.641c-21.41 0-38.766-17.356-38.766-38.766v-112.357c0-21.41 17.356-38.766 38.766-38.766h367.641c21.41 0 38.766 17.356 38.766 38.766v112.357c0 21.41-17.356 38.766-38.766 38.766z" fill="#fff"/></g><g><path d="m303.747 53.799-30.72 30.72c-4.73 4.73-7.39 11.14-7.39 17.83v28.74c0 6.69-2.65 13.1-7.38 17.83l-10.76 10.76h-79.56v-40.7c0-6.68-2.65-13.09-7.38-17.82l-18.79-18.79c32.64-21.62 71.78-34.21 113.86-34.21 16.57 0 32.68 1.95 48.12 5.64z" fill="#79e4a2"/></g><g><path d="m301.547 455.989c-14.9 3.42-30.29 5.17-45.92 5.11-48.817 0-96.657-17.593-133.82-49.25l10.32-10.32c6.28-6.29 14.8-9.81 23.69-9.81h19.46c8.89 0 17.41 3.52 23.69 9.81 3.14 3.14 6.85 5.6 10.88 7.27s8.38 2.55 12.83 2.55h20.35c8.89 0 17.42 3.52 23.7 9.81z" fill="#79e4a2"/></g><g><path d="m375.777 349.569c-11.789 16.807-25.498 32.186-40.793 45.811-7.366 6.552-19.04 1.283-19.04-8.576v-9.332c0-5.683-2.183-11.15-6.098-15.269l-12.007-12.634z" fill="#79e4a2"/></g></g><path d="m66.073 359.224c37.954 68.767 111.974 111.878 190.396 111.878 67.469 0 132.549-33.195 172.818-87.208v93.39l-18.157-18.298c-3.889-3.919-10.221-3.944-14.142-.054-3.92 3.89-3.944 10.222-.054 14.142l34.984 35.255c4.424 4.458 12.209 3.731 15.698-1.513l33.482-33.741c3.89-3.92 3.866-10.252-.054-14.142-3.921-3.891-10.252-3.866-14.142.054l-17.615 17.752v-118.164c22.19-4.563 38.929-24.248 38.929-47.769v-112.357c0-24.948-18.835-45.568-43.03-48.417-6.866-12.413-14.978-24.187-24.171-35.063-3.564-4.217-9.874-4.748-14.093-1.182-4.218 3.565-4.747 9.875-1.182 14.093 5.83 6.897 11.182 14.19 16.003 21.8h-151.405c3.447-5.525 5.299-11.913 5.299-18.59v-28.74c0-4.061 1.584-7.882 4.461-10.758l26.704-26.704c11.29 3.044 22.323 7.098 33.035 12.189 4.988 2.369 10.955.249 13.324-4.74 2.37-4.988.248-10.954-4.74-13.324-28.941-13.753-60.758-20.854-92.794-20.854-67.735 0-132.851 32.468-173.383 86.795v-90.979l18.157 18.298c3.827 3.856 10.285 3.881 14.142.054 3.92-3.89 3.944-10.222.054-14.142l-34.984-35.255c-4.424-4.458-12.209-3.731-15.698 1.513l-33.483 33.743c-3.89 3.92-3.866 10.252.054 14.142 3.922 3.891 10.253 3.866 14.142-.054l17.616-17.752v116.109c-22.325 4.458-39.201 24.202-39.201 47.818v112.357c0 24.948 18.835 45.568 43.03 48.418zm254.436.348h35.096c-8.34 10.118-17.465 19.603-27.267 28.336-.915.809-2.394.104-2.394-1.104v-9.332c0-6.445-1.903-12.64-5.435-17.9zm-39.941 89.994c-8.268 1.05-16.607 1.571-24.941 1.533-42.646 0-84.925-14.244-118.87-40.058l2.446-2.447c4.427-4.434 10.327-6.875 16.613-6.875h19.46c6.287 0 12.187 2.442 16.619 6.881 4.062 4.062 8.814 7.237 14.124 9.437 5.303 2.197 10.907 3.312 16.658 3.312h20.35c6.293 0 12.197 2.442 16.628 6.88l21.278 21.284c-.123.016-.243.037-.365.053zm24.045-4.653-30.81-30.819c-8.206-8.219-19.136-12.745-30.777-12.745h-20.35c-3.11 0-6.139-.602-9.002-1.788-2.872-1.19-5.441-2.907-7.632-5.097-8.205-8.218-19.131-12.745-30.767-12.745h-19.46c-11.634 0-22.561 4.526-30.761 12.739l-3.639 3.639c-12.29-11.475-22.972-24.358-31.918-38.525h204.051l9.047 9.52c2.159 2.271 3.347 5.247 3.347 8.38v9.332c0 18.101 22.084 28.148 35.692 16.043 14.583-12.991 27.752-27.541 39.246-43.275h40.887c-26.796 42.335-69.278 72.89-117.154 85.341zm-21.305-384.817-17.353 17.353c-6.654 6.654-10.318 15.498-10.318 24.901v28.74c0 4.067-1.581 7.889-4.452 10.759l-7.831 7.831h-65.418v-30.7c0-9.404-3.661-18.244-10.309-24.892l-9.86-9.86c29.731-17.117 63.866-26.148 98.165-26.066 9.153.014 18.312.657 27.376 1.934zm-142.775 35.182 12.952 12.952c2.871 2.87 4.451 6.688 4.451 10.749v30.7h-68.439c13.596-21.55 30.985-39.905 51.036-54.401zm-97.49 103.171c0-15.862 12.904-28.766 28.766-28.766h367.641c15.862 0 28.766 12.904 28.766 28.766v112.357c0 15.862-12.904 28.766-28.766 28.766h-.085c-.026 0-.051-.004-.077-.004s-367.041.001-367.041.001c-.015 0-.03.003-.045.003h-.392c-15.862 0-28.766-12.904-28.766-28.766v-112.357z"/><path d="m234.434 305.367c1.86 1.847 4.465 2.903 7.083 2.903.755-.003 18.584-.072 25.704-.196 25.936-.453 44.76-23.148 44.76-53.964 0-32.395-18.352-54.16-45.667-54.16h-25.014c-5.508 0-10 4.62-10 10.092v86.793c0 3.089.901 6.315 3.134 8.532zm31.88-85.418c18.924 0 25.667 17.646 25.667 34.16 0 16.688-7.764 33.664-25.11 33.967-3.526.062-9.927.11-15.425.144-.034-10.462-.081-26.414-.081-34.208 0-6.55-.027-23.204-.046-34.063z"/><path d="m152.241 309.615c15.213 0 28.051-5.482 37.127-15.853 8.653-9.888 13.227-23.6 13.227-39.653 0-5.523-4.477-10-10-10h-27.226c-5.523 0-10 4.477-10 10s4.477 10 10 10h16.402c-2.893 16.346-13.299 25.506-29.53 25.506-19.31 0-34.435-15.596-34.435-35.506 0-19.578 15.928-35.506 35.506-35.506 7.117 0 13.979 2.095 19.845 6.058 4.577 3.092 10.792 1.888 13.884-2.688s1.888-10.792-2.688-13.884c-9.185-6.206-19.918-9.485-31.041-9.485-30.606 0-55.506 24.9-55.506 55.506 0 31.124 23.91 55.505 54.435 55.505z"/><path d="m353.509 309.615c5.523 0 10-4.477 10-10v-29.587c5.447-.029 11.823-.057 15.342-.057 19.953 0 36.187-16.008 36.187-35.684s-16.233-35.684-36.187-35.684h-25.342c-5.449 0-10 4.553-10 10v91.012c0 5.523 4.477 10 10 10zm25.342-91.011c8.774 0 16.187 7.182 16.187 15.684s-7.413 15.684-16.187 15.684c-.001 0-.001 0-.003 0-3.505 0-9.796.028-15.218.057-.029-5.599-.058-12.157-.058-15.74 0-3.047-.017-9.843-.033-15.684h15.312z"/><path d="m372.339 94.839c1.625 3.901 5.649 6.42 9.87 6.15 4.128-.265 7.719-3.125 8.93-7.073 1.226-3.997-.267-8.511-3.656-10.97-3.27-2.373-7.745-2.549-11.181-.422-4.122 2.552-5.797 7.842-3.963 12.315z"/></g></svg>