<svg id="Capa_1" enable-background="new 0 0 512 512" height="512" viewBox="0 0 512 512" width="512" xmlns="http://www.w3.org/2000/svg"><g><g><path d="m393.365 142.575h13.013c1.679 0 3.04 1.361 3.04 3.04v154.541h19.976c2.419 0 4.755.877 6.577 2.467l29.189 25.486v-182.494c0-1.679 1.361-3.04 3.04-3.04h12.396c2.571 0 3.981-2.992 2.344-4.975l-43.322-52.481c-1.211-1.467-3.455-1.474-4.676-.015l-43.908 52.481c-1.656 1.979-.249 4.99 2.331 4.99z" fill="#00f2a6"/></g><g><path d="m393.365 142.575h13.013c1.679 0 3.04 1.361 3.04 3.04v154.541h19.976c2.419 0 4.755.877 6.577 2.467l29.189 25.486v-182.494c0-1.679 1.361-3.04 3.04-3.04h12.396c2.571 0 3.981-2.992 2.344-4.975l-43.322-52.481c-1.211-1.467-3.455-1.474-4.676-.015l-43.908 52.481c-1.656 1.979-.249 4.99 2.331 4.99z" fill="#00f2a6"/></g><g><g><path d="m435.748 128.826 20.108-24.034-16.239-19.672c-1.211-1.467-3.455-1.474-4.676-.015l-43.908 52.481c-1.656 1.979-.249 4.99 2.331 4.99h13.013c1.679 0 3.04 1.361 3.04 3.04v154.541h19.976c1.398 0 2.765.301 4.024.856v-165.771c.001-2.346.826-4.617 2.331-6.416z" fill="#05e39c"/></g></g><g><g><path d="m304.083 209.567v90.589h55.742v-90.589c0-1.679 1.361-3.04 3.04-3.04h12.396c2.571 0 3.981-2.992 2.344-4.975l-43.322-52.481c-1.211-1.467-3.455-1.474-4.676-.015l-43.908 52.481c-1.656 1.979-.249 4.99 2.332 4.99h13.013c1.678 0 3.039 1.361 3.039 3.04z" fill="#00f2a6"/></g></g><g><g><path d="m304.083 209.567v90.589h24v-100.962c0-2.346.825-4.617 2.33-6.417l20.108-24.034-16.239-19.672c-1.211-1.467-3.455-1.474-4.676-.015l-43.908 52.481c-1.656 1.979-.249 4.99 2.332 4.99h13.013c1.679 0 3.04 1.361 3.04 3.04z" fill="#05e39c"/></g></g><g><g><path d="m35.603 154.871c-2.798 0-5.066 2.268-5.066 5.066v340.376h70.11v-345.442z" fill="#838383"/></g><g><path d="m67.603 154.871h-32c-2.798 0-5.066 2.268-5.066 5.066v340.376h32v-340.375c0-2.798 2.268-5.067 5.066-5.067z" fill="#5a5a5a"/></g><g><path d="m96.138 440.019c-19.414-.949-35.867 12.472-39.66 30.551-3.938-1.357-8.16-2.104-12.559-2.104-16.534 0-30.629 10.412-36.103 25.035-1.235 3.298 1.242 6.812 4.763 6.812h88.068v-59.793c-1.478-.25-2.98-.426-4.509-.501z" fill="#00f2a6"/></g><path d="m219.826 363.886 36.899-32.219v-242.41c0-2.798-2.268-5.066-5.066-5.066h-145.946c-2.798 0-5.066 2.268-5.066 5.066v411.056h115.757v-128.894c0-2.887 1.248-5.634 3.422-7.533z" fill="#cecece"/><g><path d="m137.713 84.191h-32c-2.798 0-5.066 2.268-5.066 5.066v411.056h32v-411.056c0-2.798 2.268-5.066 5.066-5.066z" fill="#bfbfbf"/></g></g><g fill="#fff"><g><path d="m162.66 151.666h-22.91c-1.657 0-3-1.343-3-3v-22.91c0-1.657 1.343-3 3-3h22.91c1.657 0 3 1.343 3 3v22.91c0 1.657-1.343 3-3 3z"/><path d="m218.938 151.666h-22.91c-1.657 0-3-1.343-3-3v-22.91c0-1.657 1.343-3 3-3h22.91c1.657 0 3 1.343 3 3v22.91c0 1.657-1.343 3-3 3z"/></g><g><path d="m162.66 211.027h-22.91c-1.657 0-3-1.343-3-3v-22.91c0-1.657 1.343-3 3-3h22.91c1.657 0 3 1.343 3 3v22.91c0 1.657-1.343 3-3 3z"/><path d="m218.938 211.027h-22.91c-1.657 0-3-1.343-3-3v-22.91c0-1.657 1.343-3 3-3h22.91c1.657 0 3 1.343 3 3v22.91c0 1.657-1.343 3-3 3z"/></g><g><path d="m162.66 270.389h-22.91c-1.657 0-3-1.343-3-3v-22.91c0-1.657 1.343-3 3-3h22.91c1.657 0 3 1.343 3 3v22.91c0 1.657-1.343 3-3 3z"/><path d="m218.938 270.389h-22.91c-1.657 0-3-1.343-3-3v-22.91c0-1.657 1.343-3 3-3h22.91c1.657 0 3 1.343 3 3v22.91c0 1.657-1.343 3-3 3z"/></g><g><path d="m162.66 329.75h-22.91c-1.657 0-3-1.343-3-3v-22.91c0-1.657 1.343-3 3-3h22.91c1.657 0 3 1.343 3 3v22.91c0 1.657-1.343 3-3 3z"/><path d="m218.938 329.75h-22.91c-1.657 0-3-1.343-3-3v-22.91c0-1.657 1.343-3 3-3h22.91c1.657 0 3 1.343 3 3v22.91c0 1.657-1.343 3-3 3z"/></g><g><path d="m162.66 389.112h-22.91c-1.657 0-3-1.343-3-3v-22.91c0-1.657 1.343-3 3-3h22.91c1.657 0 3 1.343 3 3v22.91c0 1.657-1.343 3-3 3z"/><path d="m216.404 371.419c0-2.887 1.248-5.634 3.423-7.533l1.928-1.684c-.413-1.163-1.512-2.001-2.816-2.001h-22.91c-1.657 0-3 1.343-3 3v22.91c0 1.657 1.343 3 3 3h20.375z"/></g><g><path d="m162.66 448.473h-22.91c-1.657 0-3-1.343-3-3v-22.91c0-1.657 1.343-3 3-3h22.91c1.657 0 3 1.343 3 3v22.91c0 1.657-1.343 3-3 3z"/><path d="m216.404 419.564h-20.375c-1.657 0-3 1.343-3 3v22.91c0 1.657 1.343 3 3 3h20.375z"/></g></g><g><g><path d="m495.037 366.875h-125.81v133.438h120.743c2.798 0 5.066-2.268 5.066-5.066z" fill="#fff0ad"/></g><g><path d="m369.227 366.875h40v133.438h-40z" fill="#ffe177"/></g><g><path d="m216.404 371.419v128.894h152.824v-133.438l-76.412-66.719-72.989 63.731c-2.175 1.898-3.423 4.645-3.423 7.532z" fill="#fff6ce"/></g><g><path d="m248.404 379.419c0-2.887 1.248-5.634 3.423-7.533l61.57-53.76-20.581-17.97-72.989 63.731c-2.175 1.899-3.423 4.645-3.423 7.533v128.894h32z" fill="#fff0ad"/></g><g><path d="m262.613 500.313h60.404v-94.606c0-2.798-2.268-5.066-5.066-5.066h-50.271c-2.798 0-5.066 2.268-5.066 5.066v94.606z" fill="#fd6930"/></g><g><path d="m291.68 400.641h-24c-2.798 0-5.066 2.268-5.066 5.066v94.606h24v-94.606c0-2.798 2.268-5.066 5.066-5.066z" fill="#fd5426"/></g><g><path d="m495.037 408.641h-81.424c-1.657 0-3 1.343-3 3v37.672c0 1.657 1.343 3 3 3h81.424z" fill="#dff6fd"/></g><g><path d="m413.614 408.641c-1.657 0-3 1.343-3 3v37.672c0 1.657 1.343 3 3 3h26.424v-43.672z" fill="#99e6fc"/></g><g><path d="m429.387 300.156h-136.572l76.412 66.719h132.22c2.808 0 4.115-3.482 1.999-5.33l-67.482-58.922c-1.822-1.591-4.159-2.467-6.577-2.467z" fill="#fd6930"/></g><g><path d="m292.815 300.156 76.412 66.719h40l-76.412-66.719z" fill="#fd5426"/></g></g><g><path d="m173.16 125.756c0-5.79-4.71-10.5-10.5-10.5h-22.909c-5.79 0-10.5 4.71-10.5 10.5v22.91c0 5.79 4.71 10.5 10.5 10.5h22.909c5.79 0 10.5-4.71 10.5-10.5zm-15 18.41h-13.909v-13.91h13.909z"/><path d="m229.438 125.756c0-5.79-4.71-10.5-10.5-10.5h-22.91c-5.79 0-10.5 4.71-10.5 10.5v22.91c0 5.79 4.71 10.5 10.5 10.5h22.91c5.79 0 10.5-4.71 10.5-10.5zm-15 18.41h-13.91v-13.91h13.91z"/><path d="m173.16 185.117c0-5.79-4.71-10.5-10.5-10.5h-22.909c-5.79 0-10.5 4.71-10.5 10.5v22.91c0 5.79 4.71 10.5 10.5 10.5h22.909c5.79 0 10.5-4.71 10.5-10.5zm-15 18.41h-13.909v-13.91h13.909z"/><path d="m229.438 185.117c0-5.79-4.71-10.5-10.5-10.5h-22.91c-5.79 0-10.5 4.71-10.5 10.5v22.91c0 5.79 4.71 10.5 10.5 10.5h22.91c5.79 0 10.5-4.71 10.5-10.5zm-15 18.41h-13.91v-13.91h13.91z"/><path d="m173.16 244.479c0-5.79-4.71-10.5-10.5-10.5h-22.909c-5.79 0-10.5 4.71-10.5 10.5v22.909c0 5.79 4.71 10.5 10.5 10.5h22.909c5.79 0 10.5-4.71 10.5-10.5zm-15 18.41h-13.909v-13.909h13.909z"/><path d="m229.438 244.479c0-5.79-4.71-10.5-10.5-10.5h-22.91c-5.79 0-10.5 4.71-10.5 10.5v22.909c0 5.79 4.71 10.5 10.5 10.5h22.91c5.79 0 10.5-4.71 10.5-10.5zm-15 18.41h-13.91v-13.909h13.91z"/><path d="m173.16 303.841c0-5.79-4.71-10.5-10.5-10.5h-22.909c-5.79 0-10.5 4.71-10.5 10.5v22.909c0 5.79 4.71 10.5 10.5 10.5h22.909c5.79 0 10.5-4.71 10.5-10.5zm-15 18.409h-13.909v-13.909h13.909z"/><path d="m218.938 293.341h-22.91c-5.79 0-10.5 4.71-10.5 10.5v22.909c0 5.79 4.71 10.5 10.5 10.5h22.91c5.79 0 10.5-4.71 10.5-10.5v-22.909c0-5.79-4.71-10.5-10.5-10.5zm-4.5 28.909h-13.91v-13.909h13.91z"/><path d="m173.16 363.202c0-5.79-4.71-10.5-10.5-10.5h-22.909c-5.79 0-10.5 4.71-10.5 10.5v22.91c0 5.79 4.71 10.5 10.5 10.5h22.909c5.79 0 10.5-4.71 10.5-10.5zm-15 18.41h-13.909v-13.91h13.909z"/><path d="m162.66 412.063h-22.909c-5.79 0-10.5 4.71-10.5 10.5v22.91c0 5.79 4.71 10.5 10.5 10.5h22.909c5.79 0 10.5-4.71 10.5-10.5v-22.91c0-5.79-4.71-10.5-10.5-10.5zm-4.5 28.911h-13.909v-13.91h13.909z"/><path d="m508.378 355.895-35.718-31.187v-54.208c0-4.143-3.357-7.5-7.5-7.5s-7.5 3.357-7.5 7.5v41.111l-16.763-14.637c-3.188-2.785-7.276-4.319-11.511-4.319h-12.468v-147.04c0-5.812-4.728-10.54-10.539-10.54h-3.467l34.339-41.043 33.879 41.043h-2.931c-5.812 0-10.539 4.729-10.539 10.54v89.885c0 4.143 3.357 7.5 7.5 7.5s7.5-3.357 7.5-7.5v-85.425h7.936c4.123 0 7.776-2.317 9.534-6.047s1.219-8.022-1.406-11.202l-43.322-52.481c-2.001-2.425-4.952-3.821-8.096-3.83-.011 0-.021-.001-.033-.001-3.13 0-6.075 1.377-8.082 3.777l-43.909 52.481c-2.655 3.174-3.217 7.475-1.466 11.224 1.752 3.75 5.411 6.079 9.55 6.079h8.553v142.58h-34.594v-78.628h7.936c4.123 0 7.776-2.316 9.534-6.046s1.22-8.021-1.405-11.203l-43.321-52.479c-2-2.425-4.949-3.821-8.093-3.832-.013 0-.024-.001-.037-.001-3.13 0-6.074 1.376-8.083 3.777l-43.908 52.481c-2.655 3.174-3.217 7.475-1.466 11.224 1.752 3.75 5.411 6.079 9.55 6.079h8.553v78.628h-3.768c-1.76 0-3.52.617-4.932 1.85l-23.657 20.657v-162.662c0-4.143-3.357-7.5-7.5-7.5s-7.5 3.357-7.5 7.5v175.76l-28.244 24.662c-.663-.132-1.342-.22-2.043-.22h-22.91c-5.79 0-10.5 4.71-10.5 10.5v22.91c0 5.79 4.71 10.5 10.5 10.5h12.876v15.451h-12.876c-5.79 0-10.5 4.71-10.5 10.5v22.91c0 5.79 4.71 10.5 10.5 10.5h12.876v36.84h-100.76v-401.123h141.078v25.81c0 4.143 3.357 7.5 7.5 7.5s7.5-3.357 7.5-7.5v-28.243c0-6.929-5.638-12.566-12.566-12.566h-145.945c-6.929 0-12.566 5.638-12.566 12.566v58.114h-57.545c-6.929 0-12.566 5.638-12.566 12.566v23.377h-2.667c-4.143 0-7.5 3.357-7.5 7.5s3.357 7.5 7.5 7.5h2.667v17.088h-2.667c-4.143 0-7.5 3.357-7.5 7.5s3.357 7.5 7.5 7.5h2.667v17.088h-2.667c-4.143 0-7.5 3.357-7.5 7.5s3.357 7.5 7.5 7.5h2.667v17.088h-2.667c-4.143 0-7.5 3.357-7.5 7.5s3.357 7.5 7.5 7.5h2.667v17.088h-2.667c-4.143 0-7.5 3.357-7.5 7.5s3.357 7.5 7.5 7.5h2.667v17.089h-2.667c-4.143 0-7.5 3.357-7.5 7.5s3.357 7.5 7.5 7.5h2.667v17.088h-2.667c-4.143 0-7.5 3.357-7.5 7.5s3.357 7.5 7.5 7.5h2.667v17.088h-2.667c-4.143 0-7.5 3.357-7.5 7.5s3.357 7.5 7.5 7.5h2.667v43.097c-10.046 5.139-18.142 13.887-22.245 24.845-1.437 3.84-.896 8.147 1.444 11.524 2.353 3.392 6.219 5.417 10.343 5.417h477.392c6.929 0 12.565-5.638 12.565-12.566v-120.934c3.972-.401 7.35-2.967 8.778-6.777 1.56-4.154.407-8.724-2.936-11.642zm-415.231 136.918h-76.836c5.269-10.206 15.95-16.847 27.608-16.847 3.451 0 6.854.57 10.114 1.694 2.033.699 4.272.495 6.145-.567 1.872-1.062 3.198-2.877 3.64-4.983 2.968-14.145 15.078-24.148 29.329-24.621zm0-60.323c-18.733.415-35.073 11.95-41.785 29.081-2.453-.401-4.939-.604-7.442-.604-1.984 0-3.947.137-5.883.389v-38.426h55.11zm0-24.559h-55.11v-17.088h55.11zm0-32.088h-55.11v-17.088h55.11zm0-32.088h-55.11v-17.089h55.11zm0-32.089h-55.11v-17.088h55.11zm0-32.088h-55.11v-17.088h55.11zm0-32.088h-55.11v-17.088h55.11zm0-32.088h-55.11v-17.088h55.11zm0-32.088h-55.11v-20.943h55.11zm115.757 257.66h-8.376v-13.91h8.376zm0-69.555v10.193h-8.376v-13.91h8.775c-.263 1.211-.399 2.456-.399 3.717zm123.011-213.435 33.88 41.043h-2.931c-5.812 0-10.54 4.729-10.54 10.54v83.088h-40.741v-83.088c0-5.812-4.729-10.54-10.54-10.54h-3.466zm29.812 334.829h-31.21v-28.313c0-4.143-3.357-7.5-7.5-7.5s-7.5 3.357-7.5 7.5v28.313h-45.403v-84.672h45.403v21.359c0 4.143 3.357 7.5 7.5 7.5s7.5-3.357 7.5-7.5v-23.793c0-6.929-5.638-12.565-12.566-12.565h-50.271c-6.929 0-12.566 5.637-12.566 12.565v87.106h-31.21v-121.394c0-.722.312-1.408.855-1.883l68.056-59.424 68.912 60.171zm125.81-48h-39.999v-28.672h39.999zm0-43.671h-73.923c-5.79 0-10.5 4.71-10.5 10.5v37.672c0 5.79 4.71 10.5 10.5 10.5h73.923v33h-110.81v-118.439h110.81zm-54.999 15v28.672h-14.424v-28.672zm-60.497-56.767-59.233-51.72h116.579c.604 0 1.188.219 1.645.617l58.526 51.103z"/><path d="m343.723 100.788h-24.15c-5.549 0-10.063-4.515-10.063-10.064 0-4.143-3.357-7.5-7.5-7.5s-7.5 3.357-7.5 7.5c0 13.82 11.243 25.064 25.063 25.064h4.575v8.6c0 4.143 3.357 7.5 7.5 7.5s7.5-3.357 7.5-7.5v-8.6h4.575c13.82 0 25.063-11.244 25.063-25.064v-5.123c0-13.82-11.243-25.063-25.063-25.063h-24.15c-5.549 0-10.063-4.515-10.063-10.063v-5.123c0-5.549 4.515-10.063 10.063-10.063h24.15c5.549 0 10.063 4.515 10.063 10.063 0 4.143 3.357 7.5 7.5 7.5s7.5-3.357 7.5-7.5c0-13.82-11.243-25.063-25.063-25.063h-4.575v-8.601c0-4.143-3.357-7.5-7.5-7.5s-7.5 3.357-7.5 7.5v8.601h-4.575c-13.82 0-25.063 11.243-25.063 25.063v5.123c0 13.82 11.243 25.063 25.063 25.063h24.15c5.549 0 10.063 4.515 10.063 10.063v5.123c0 5.549-4.515 10.064-10.063 10.064z"/></g></g></svg>