<svg id="_x33_0" enable-background="new 0 0 64 64" height="512" viewBox="0 0 64 64" width="512" xmlns="http://www.w3.org/2000/svg"><g><g><g><path d="m46 51h11c0 6.08-4.92 11-11 11-2.55 0-4.89-.86-6.75-2.32z" fill="#e6e9ed"/></g><g><path d="m40 44.14 6 6.86-6.75 8.68c-1.83-1.41-3.2-3.4-3.84-5.68h1.59c1.66 0 3-1.34 3-3v-3z" fill="#fcd770"/></g><g><path d="m46 40v11l-6-6.86v-2.36c1.73-1.13 3.79-1.78 6-1.78z" fill="#b4dd7f"/></g><g><path d="m62 51h-5-11v-11-5c8.84 0 16 7.16 16 16z" fill="#ff826e"/></g><g><path d="m16 54h12v8h-12z" fill="#969faa"/></g><g><path d="m40 48v3c0 1.66-1.34 3-3 3h-1.59-7.41-12-9c-1.66 0-3-1.34-3-3v-3z" fill="#ccd1d9"/></g><g><path d="m40 44.14v3.86h-36v-18c1.83 2.43 4.73 4 8 4 4.1 0 7.62-2.47 9.16-6h.01 16.83c1.1 0 2 .9 2 2v11.78z" fill="#69d6f4"/></g><g><path d="m52 10v6h-2-2v-6h2z" fill="#ff826e"/></g><g><path d="m32 8v12h-2-2v-12h2z" fill="#ff826e"/></g><g><path d="m42 16v6h-2-2v-6h2z" fill="#ff826e"/></g><g><path d="m62 6v14h-2-2v-14h2z" fill="#ff826e"/></g><g><path d="m22 4v4h-2-2v-4h2z" fill="#ff826e"/></g><g><path d="m22 24c0 1.42-.3 2.78-.84 4-1.54 3.53-5.06 6-9.16 6-3.27 0-6.17-1.57-8-4-1.25-1.67-2-3.75-2-6 0-5.52 4.48-10 10-10s10 4.48 10 10z" fill="#fcd770"/></g></g><g><path d="m11 28.816v2.184h2v-2h2v-3c0-1.654-1.346-3-3-3-.551 0-1-.448-1-1v-1h1c.551 0 1 .448 1 1v1h2v-1c0-1.302-.839-2.402-2-2.816v-2.184h-2v2h-2v3c0 1.654 1.346 3 3 3 .551 0 1 .448 1 1v1h-1c-.551 0-1-.448-1-1v-1h-2v1c0 1.302.839 2.402 2 2.816z"/><path d="m29 25h2v-4h2v-14h-2v-4h-2v4h-2v14h2zm0-16h2v10h-2z"/><path d="m19 11h2v-2h2v-6h-2v-2h-2v2h-2v6h2zm0-6h2v2h-2z"/><path d="m61 5v-4h-2v4h-2v16h2v4h2v-4h2v-16zm0 14h-2v-12h2z"/><path d="m49 21h2v-4h2v-8h-2v-4h-2v4h-2v8h2zm0-10h2v4h-2z"/><path d="m39 25h2v-2h2v-8h-2v-2h-2v2h-2v8h2zm0-8h2v4h-2z"/><path d="m46 34h-1v5.045c-1.389.115-2.741.467-4 1.045v-10.09c0-1.654-1.346-3-3-3h-15.426c.271-.955.426-1.959.426-3 0-6.065-4.935-11-11-11s-11 4.935-11 11c0 2.346.744 4.517 2 6.305v20.695c0 2.206 1.794 4 4 4h8v6h-4v2h22v-2h-4v-6h5.691c1.679 4.745 6.22 8 11.309 8 6.279 0 11.438-4.85 11.949-11h5.051v-1c0-9.374-7.626-17-17-17zm-1 7.072v7.267l-4-4.572v-1.401c1.23-.713 2.586-1.153 4-1.294zm-7-12.072c.551 0 1 .448 1 1v17h-34v-14.521c1.903 1.574 4.343 2.521 7 2.521 4.264 0 7.961-2.444 9.786-6zm-26-14c4.962 0 9 4.037 9 9s-4.038 9-9 9-9-4.037-9-9 4.038-9 9-9zm-7 36v-2h34v2c0 1.103-.897 2-2 2h-30c-1.103 0-2-.897-2-2zm22 10h-10v-6h10zm9.841-6h.159c2.206 0 4-1.794 4-4v-4.196l3.704 4.233-5.594 7.192c-.952-.904-1.73-1.996-2.269-3.229zm9.159 6c-1.925 0-3.755-.56-5.313-1.539l5.802-7.461h9.46c-.503 5.046-4.772 9-9.949 9zm1-11v-13.967c7.476.494 13.472 6.491 13.967 13.967z"/><path d="m21 33h4v2h-4z"/><path d="m27 33h8v2h-8z"/><path d="m21 37h14v2h-14z"/><path d="m21 41h2v2h-2z"/><path d="m25 41h2v2h-2z"/><path d="m29 41h6v2h-6z"/></g></g></svg>