<svg id="_x33_0" enable-background="new 0 0 64 64" height="512" viewBox="0 0 64 64" width="512" xmlns="http://www.w3.org/2000/svg"><g><g><g><path d="m54 50h4v12h-4z" fill="#aab2bd"/></g><g><path d="m20 3v3h-6v-3c0-.55.45-1 1-1h4c.55 0 1 .45 1 1z" fill="#cf9e76"/></g><g><path d="m10 7v3h-6v-3c0-.55.45-1 1-1h4c.55 0 1 .45 1 1z" fill="#cf9e76"/></g><g><path d="m20 6v6.96l-5.9 2.3-.1-.26v-9z" fill="#dfb28b"/></g><g><path d="m10 10v6.87l-6 2.35v-9.22z" fill="#dfb28b"/></g><g><path d="m4 19.22 6-2.35 4.1-1.61 5.9-2.3 5-1.96h4 1v4h-4l-24 9v-4z" fill="#ccd1d9"/></g><g><path d="m30 30h12v12h-12z" fill="#d3a06c"/></g><g><path d="m46 30h12v12h-12z" fill="#d3a06c"/></g><g><path d="m26 15-24 9v38h28v-47z" fill="#e6e9ed"/></g><g><path d="m18 46h8v16h-8z" fill="#69d6f4"/></g><g><path d="m6 46h8v16h-8z" fill="#69d6f4"/></g><g><path d="m45.84 29.53c3.58-1.18 6.16-4.55 6.16-8.53 0-4.97-4.03-9-9-9s-9 4.03-9 9c0 4.64 3.51 8.45 8.01 8.94l-.01.06h-4-4-4v-15-4h-1v-.04l4.81-4.81.42.42c.78.79 1.96 1.02 2.99.6l.08-.03c1.03-.43 1.7-1.43 1.7-2.55v-.59h4 4v.59c0 1.12.67 2.12 1.7 2.55.35.14.73.21 1.09.21.75 0 1.49-.29 2.04-.84l.36-.36 5.66 5.66-.42.42c-.79.78-1.02 1.96-.6 2.99l.03.08c.43 1.03 1.43 1.7 2.55 1.7h.59v4 4h-.59c-1.12 0-2.12.67-2.55 1.7-.14.35-.21.73-.21 1.09 0 .75.29 1.49.84 2.04v.17h-3.49-4-4z" fill="#ffc729"/></g><g><path d="m45.84 29.53c-.89.31-1.85.47-2.84.47-.33 0-.67-.02-.99-.06-4.5-.49-8.01-4.3-8.01-8.94 0-4.97 4.03-9 9-9s9 4.03 9 9c0 3.98-2.58 7.35-6.16 8.53zm2.16-8.53c0-2.76-2.24-5-5-5s-5 2.24-5 5 2.24 5 5 5 5-2.24 5-5z" fill="#fcd770"/></g><g><path d="m58 42c2.21 0 4 1.79 4 4 0 1.1-.45 2.1-1.17 2.83-.73.72-1.73 1.17-2.83 1.17h-4c2.21 0 4-1.79 4-4s-1.79-4-4-4z" fill="#ccd1d9"/></g><g><path d="m46 42h8c-2.21 0-4 1.79-4 4s1.79 4 4 4h-12c2.21 0 4-1.79 4-4s-1.79-4-4-4z" fill="#ccd1d9"/></g><g><path d="m30 42h12c-2.21 0-4 1.79-4 4s1.79 4 4 4h-12c2.21 0 4-1.79 4-4s-1.79-4-4-4z" fill="#ccd1d9"/></g><g><path d="m54 42c2.21 0 4 1.79 4 4s-1.79 4-4 4-4-1.79-4-4 1.79-4 4-4z" fill="#969faa"/></g><g><path d="m42 42c2.21 0 4 1.79 4 4s-1.79 4-4 4-4-1.79-4-4 1.79-4 4-4z" fill="#969faa"/></g><g><path d="m30 42c2.21 0 4 1.79 4 4s-1.79 4-4 4z" fill="#969faa"/></g><g><path d="m50 30h4v4h-4z" fill="#b27946"/></g><g><path d="m34 30h4v4h-4z" fill="#b27946"/></g><g><path d="m22 28h4v6h-4z" fill="#69d6f4"/></g><g><path d="m14 28h4v6h-4z" fill="#69d6f4"/></g><g><path d="m6 28h4v6h-4z" fill="#69d6f4"/></g></g><g><circle cx="54" cy="46" r="1"/><circle cx="42" cy="46" r="1"/><path d="m59 50.899c2.279-.465 4-2.484 4-4.899s-1.721-4.434-4-4.899v-12.101h-.896c-.451-.533-.585-1.264-.315-1.918.271-.657.905-1.082 1.616-1.082h1.595v-10h-1.595c-.71 0-1.345-.425-1.649-1.161-.27-.655-.121-1.403.379-1.904l1.128-1.127-7.071-7.071-1.067 1.066c-.538.539-1.341.7-2.044.408-.657-.271-1.081-.905-1.081-1.616v-1.595h-10v1.595c0 .711-.424 1.346-1.161 1.649-.655.272-1.403.121-1.903-.38l-1.127-1.129-5.265 5.265h-3.732l-3.812 1.491v-8.491c0-1.103-.897-2-2-2h-4c-1.103 0-2 .897-2 2v11.622l-2 .783v-8.405c0-1.103-.897-2-2-2h-4c-1.103 0-2 .897-2 2v11.535l-2 .783v43.682h62v-2h-4zm-56-26.206 23.181-8.693h2.819v13 10h-26zm32-3.693c0-4.411 3.589-8 8-8s8 3.589 8 8-3.589 8-8 8-8-3.589-8-8zm16 10h2v2h-2zm4 4v-4h2v10h-10v-10h2v4zm2 11c0 1.654-1.346 3-3 3s-3-1.346-3-3 1.346-3 3-3 3 1.346 3 3zm-12-5h-2v-10c.685 0 1.354-.07 2-.202zm-10-10h2v2h-2zm4 4v-4h2v10h-10v-10h2v4zm-8 13.816v-5.631c1.161.414 2 1.514 2 2.816s-.839 2.401-2 2.815zm2.974-5.816h4.051c-.634.838-1.025 1.87-1.025 3s.391 2.162 1.026 3h-4.051c.634-.838 1.025-1.87 1.025-3s-.391-2.162-1.026-3zm5.026 3c0-1.654 1.346-3 3-3s3 1.346 3 3-1.346 3-3 3-3-1.346-3-3zm6.974-3h4.051c-.634.838-1.025 1.87-1.025 3s.391 2.162 1.026 3h-4.051c.634-.838 1.025-1.87 1.025-3s-.391-2.162-1.026-3zm9.026 8h2v10h-2zm6-5c0 1.654-1.346 3-3 3h-.026c.635-.838 1.026-1.87 1.026-3s-.391-2.162-1.026-3h.026c1.654 0 3 1.346 3 3zm-27.177-38.45c1.058.852 2.506 1.065 3.857.511 1.283-.529 2.153-1.704 2.299-3.061h6.043c.146 1.357 1.015 2.532 2.298 3.061 1.3.536 2.762.328 3.851-.518l4.28 4.28c-.853 1.059-1.067 2.507-.51 3.856.529 1.283 1.704 2.153 3.06 2.299v6.043c-1.356.146-2.531 1.016-3.06 2.298-.361.875-.379 1.821-.098 2.681h-6.868c2.437-1.825 4.025-4.727 4.025-8 0-5.514-4.486-10-10-10s-10 4.486-10 10c0 3.273 1.588 6.175 4.026 8h-6.026v-18.628zm-14.823-4.55v2h-4v-2zm-4 4h4v5.274l-4 1.565zm-6 0v2h-4v-2zm-4 4h4v5.187l-4 1.565zm20.188 1h3.812v2h-3.181l-22.819 8.557v-1.874zm-12.188 49h-6v-14h6zm12 0h-6v-14h6zm4 0h-2v-16h-10v16h-2v-16h-10v16h-2v-20h26v1zm2-10h22v10h-22z"/><path d="m21 27v8h6v-8zm4 6h-2v-4h2z"/><path d="m13 35h6v-8h-6zm2-6h2v4h-2z"/><path d="m5 35h6v-8h-6zm2-6h2v4h-2z"/><path d="m43 15c-3.309 0-6 2.691-6 6s2.691 6 6 6 6-2.691 6-6-2.691-6-6-6zm0 10c-2.206 0-4-1.794-4-4s1.794-4 4-4 4 1.794 4 4-1.794 4-4 4z"/></g></g></svg>