<svg id="Layer_5" enable-background="new 0 0 64 64" height="512" viewBox="0 0 64 64" width="512" xmlns="http://www.w3.org/2000/svg"><g><g><g><path d="m62 2v13l-13 4-6-9 14-8z" fill="#b4dd7f"/></g><g><path d="m15.75 7.83.25.17-3 11-11-4v-13h5z" fill="#ff826e"/></g><g><path d="m26.38 20.62c.38.38.62.92.62 1.5 0 .56-.22 1.1-.62 1.5l-2.76 2.76c-.4.4-.94.62-1.5.62-1.17 0-2.12-.95-2.12-2.12 0-.56.22-1.1.62-1.5l2.76-2.76c.4-.4.94-.62 1.5-.62.58 0 1.12.24 1.5.62z" fill="#f0d0b4"/></g><g><path d="m43 10 6 9-5 3-.18.08c-.12-.26-.29-.5-.51-.7l-8.45-7.6c-.55-.5-1.27-.78-2.02-.78-.55 0-1.09.15-1.56.43l-3.72 2.24c-.37.21-.78.33-1.21.33-.65 0-1.24-.26-1.66-.69-.43-.42-.69-1.01-.69-1.66v-.2c0-.89.5-1.7 1.3-2.1l5.58-2.79c.74-.37 1.55-.56 2.38-.56.49 0 .98.07 1.46.2l6.28 1.8z" fill="#f0d0b4"/></g><g><circle cx="32" cy="46" fill="#ffc729" r="16"/></g><g><path d="m35.96 31c-.62 0-1.22-.22-1.7-.61l-1.51-1.27c.16-.31.25-.65.25-1 0-.58-.24-1.12-.62-1.5s-.92-.62-1.5-.62c-.56 0-1.1.22-1.5.62.4-.4.62-.94.62-1.5 0-.58-.24-1.12-.62-1.5s-.92-.62-1.5-.62c-.56 0-1.1.22-1.5.62.4-.4.62-.94.62-1.5 0-.58-.24-1.12-.62-1.5s-.92-.62-1.5-.62c-.56 0-1.1.22-1.5.62.4-.4.62-.94.62-1.5 0-.58-.24-1.12-.62-1.5s-.92-.62-1.5-.62c-.56 0-1.1.22-1.5.62l-2.76 2.76c-.29.29-.49.65-.57 1.05l-4.05-2.43 3-11-.25-.17 7.04-1.56c.8-.18 1.63-.27 2.45-.27 1.17 0 2.33.18 3.44.54l4.58 1.46c-.83 0-1.64.19-2.38.56l-5.58 2.79c-.8.4-1.3 1.21-1.3 2.1v.2c0 .65.26 1.24.69 1.66.42.43 1.01.69 1.66.69.43 0 .84-.12 1.21-.33l3.72-2.24c.47-.28 1.01-.43 1.56-.43.75 0 1.47.28 2.02.78l8.45 7.6c.22.2.39.44.51.7s.18.55.18.84c0 1.15-.93 2.08-2.08 2.08h-.17c-.48 0-.95-.17-1.33-.48l-.16-.13c.47.39.74.96.74 1.57 0 .56-.23 1.08-.6 1.44-.36.37-.88.6-1.44.6h-.22c-.48 0-.94-.17-1.31-.47l-.17-.14c.47.39.74.96.74 1.57 0 .56-.23 1.08-.6 1.44-.15.15-.32.28-.51.37-.28.15-.6.23-.93.23z" fill="#f0d0b4"/></g><g><path d="m32.75 29.12c-.1.18-.22.35-.37.5l-2.5 2.5-.26.26c-.4.4-.94.62-1.5.62-1.08 0-1.97-.81-2.1-1.85-.01-.09-.02-.18-.02-.27 0-.56.22-1.1.62-1.5l2.76-2.76c.4-.4.94-.62 1.5-.62.58 0 1.12.24 1.5.62s.62.92.62 1.5c0 .35-.09.69-.25 1z" fill="#f0d0b4"/></g><g><path d="m23.38 17.62c.38.38.62.92.62 1.5 0 .56-.22 1.1-.62 1.5l-2.76 2.76c-.4.4-.94.62-1.5.62-1.17 0-2.12-.95-2.12-2.12 0-.15.02-.31.05-.45.08-.4.28-.76.57-1.05l2.76-2.76c.4-.4.94-.62 1.5-.62.58 0 1.12.24 1.5.62z" fill="#f0d0b4"/></g><g><path d="m29.38 23.62c.38.38.62.92.62 1.5 0 .56-.22 1.1-.62 1.5l-2.76 2.76c-.4.4-.94.62-1.5.62-1.17 0-2.12-.95-2.12-2.12 0-.56.22-1.1.62-1.5l2.76-2.76c.4-.4.94-.62 1.5-.62.58 0 1.12.24 1.5.62z" fill="#f0d0b4"/></g><g><path d="m34.26 30.39c.47.39.74.96.74 1.57 0 .56-.23 1.08-.6 1.44-.36.37-.88.6-1.44.6h-.19c-.5 0-.98-.18-1.35-.51l-1.54-1.37 2.5-2.5c.15-.15.27-.32.37-.5z" fill="#f0d0b4"/></g><g><circle cx="32" cy="46" fill="#fcd770" r="12"/></g></g><g><path d="m56.734 1-14 8h-1.594l-6.149-1.757c-.483-.138-.983-.194-1.485-.213l-4.524-1.447c-2.062-.66-4.293-.761-6.408-.291l-6.624 1.473-8.647-5.765h-6.303v14.7l11.568 4.207 3.442 2.065c.049 1.64 1.364 2.959 3.002 3.017.058 1.632 1.368 2.942 3 3 .049 1.372.984 2.511 2.253 2.876-5.674 2.889-9.265 8.667-9.265 15.135 0 9.374 7.626 17 17 17s17-7.626 17-17c0-6.932-4.097-13.005-10.357-15.644.215-.41.347-.868.353-1.36 1.647-.021 2.981-1.356 3-3.003 1.662-.04 3.004-1.398 3.004-3.069 0-.114-.023-.224-.036-.337l4.447-2.668 13.589-4.18v-14.739zm-53.734 13.3v-11.3h3.697l8.148 5.432-2.525 9.257zm15 7.579c0-.3.117-.581.328-.793l2.758-2.758c.212-.211.493-.328.793-.328.618 0 1.121.503 1.121 1.121 0 .3-.117.581-.328.793l-2.758 2.758c-.212.211-.493.328-.793.328-.618 0-1.121-.503-1.121-1.121zm3 3c0-.3.117-.581.328-.793l2.758-2.758c.212-.211.493-.328.793-.328.618 0 1.121.503 1.121 1.121 0 .3-.117.581-.328.793l-2.758 2.758c-.212.211-.493.328-.793.328-.618 0-1.121-.503-1.121-1.121zm3.328 2.207 2.758-2.758c.212-.211.493-.328.793-.328.618 0 1.121.503 1.121 1.121 0 .3-.117.581-.328.793l-2.758 2.758c-.212.211-.493.328-.793.328-.618 0-1.121-.503-1.121-1.121 0-.3.117-.581.328-.793zm6.551-.086c.618 0 1.121.503 1.121 1.121 0 .3-.117.581-.328.793l-2.758 2.758c-.212.211-.493.328-.793.328-.618 0-1.121-.503-1.121-1.121 0-.3.117-.581.328-.793l2.758-2.758c.212-.211.493-.328.793-.328zm2.001 3.535.745.621c.238.198.375.49.375.801 0 .575-.468 1.043-1.043 1.043h-.185c-.254 0-.499-.093-.69-.261l-.748-.66zm-.88 4.465c6.065 0 11 4.935 11 11s-4.935 11-11 11-11-4.935-11-11 4.935-11 11-11zm15 11c0 8.271-6.729 15-15 15s-15-6.729-15-15c0-5.818 3.29-11.007 8.465-13.504.414.677 1.074 1.179 1.859 1.388-4.862 1.883-8.324 6.597-8.324 12.116 0 7.168 5.832 13 13 13s13-5.832 13-13c0-5.933-3.999-10.939-9.439-12.492.266-.445.428-.958.435-1.512.319-.004.622-.067.911-.163 6.057 2.089 10.093 7.704 10.093 14.167zm-5.076-22h-.173c-.251 0-.496-.088-.688-.249l-.158-.132-5.265-4.387-1.28 1.536 5.265 4.387c.238.2.375.492.375.802 0 .575-.468 1.043-1.043 1.043h-.217c-.244 0-.481-.086-.668-.242l-.167-.139-5.265-4.387-1.28 1.536 5.265 4.387c.238.199.375.491.375.802 0 .575-.468 1.043-1.043 1.043-.384 0-.757-.135-1.052-.381l-.984-.82c.048-.221.079-.446.079-.678 0-1.684-1.342-3.051-3.011-3.11-.058-1.632-1.368-2.942-3-3-.058-1.632-1.368-2.942-3-3-.059-1.669-1.427-3.011-3.11-3.011-.834 0-1.618.325-2.207.914l-2.758 2.758c-.106.106-.193.224-.281.342l-2.469-1.481 2.706-9.924 6.137-1.364c1.772-.393 3.639-.308 5.365.244l1.472.471-4.993 2.496c-1.142.571-1.851 1.719-1.851 2.996v.199c0 1.847 1.502 3.349 3.349 3.349.607 0 1.203-.165 1.724-.478l3.723-2.234c.743-.447 1.753-.35 2.398.231l8.45 7.605c.226.205.356.496.356.8 0 .594-.482 1.076-1.076 1.076zm2.058-3.361-8.45-7.605c-1.283-1.155-3.286-1.348-4.766-.46l-3.723 2.234c-.209.126-.449.192-.694.192-.744 0-1.349-.605-1.349-1.349v-.199c0-.515.286-.977.746-1.207l5.579-2.789c.957-.478 2.091-.583 3.117-.29l6.284 1.795 1.734.029 5.127 7.691-3.484 2.09c-.043-.041-.076-.092-.121-.132zm17.018-6.378-11.582 3.564-4.992-7.488 12.84-7.337h3.734z"/><path d="m31 53v2h2v-2c2.206 0 4-1.794 4-4s-1.794-4-4-4h-2c-1.103 0-2-.897-2-2s.897-2 2-2h2c1.103 0 2 .897 2 2h2c0-2.206-1.794-4-4-4v-2h-2v2c-2.206 0-4 1.794-4 4s1.794 4 4 4h2c1.103 0 2 .897 2 2s-.897 2-2 2h-2c-1.103 0-2-.897-2-2v-1h-2v1c0 2.205 1.794 4 4 4z"/><path d="m48.2 37.4 1.6 1.2 4.2-5.6v21h2v-21l4.2 5.6 1.6-1.2-6.8-9.067z"/><path d="m54 56h2v2h-2z"/><path d="m15.8 37.4-6.8-9.067-6.8 9.067 1.6 1.2 4.2-5.6v21h2v-21l4.2 5.6z"/><path d="m8 56h2v2h-2z"/></g></g></svg>