<svg id="Layer_35" enable-background="new 0 0 64 64" height="512" viewBox="0 0 64 64" width="512" xmlns="http://www.w3.org/2000/svg"><path d="m50 2h-44c2.21 0 4 1.79 4 4v26 26c0 1.1.45 2.1 1.17 2.83.73.72 1.73 1.17 2.83 1.17 2.21 0 4-1.79 4-4v-4h36v-48c0-2.21-1.79-4-4-4z" fill="#e6e9ed"/><path d="m10 32h-8v-26c0-1.1.45-2.1 1.17-2.83.73-.72 1.73-1.17 2.83-1.17 2.21 0 4 1.79 4 4z" fill="#fcd770"/><path d="m62 54v4c0 2.21-1.79 4-4 4h-44c2.21 0 4-1.79 4-4v-4h4 4 4 4 4 4 4 4 4z" fill="#fcd770"/><path d="m24 6h26v16h-26z" fill="#ff826e"/><g fill="#b4dd7f"><path d="m22 48h4v6h-4z"/><path d="m30 44h4v10h-4z"/><path d="m38 42h4v12h-4z"/><path d="m46 38h4v16h-4z"/></g><path d="m50 26-2 8-3-3-3-3z" fill="#ff826e"/><path d="m55 53v-47c0-2.757-2.243-5-5-5h-44c-2.757 0-5 2.243-5 5v27h8v25c0 2.757 2.243 5 5 5h44c2.757 0 5-2.243 5-5v-5zm-46-22h-6v-25c0-1.654 1.346-3 3-3s3 1.346 3 3zm8 27c0 1.654-1.346 3-3 3s-3-1.346-3-3v-52c0-1.13-.391-2.162-1.026-3h40.026c1.654 0 3 1.346 3 3v47h-2v-16h-6v16h-2v-12h-6v12h-2v-10h-6v10h-2v-6h-6v6h-4zm32-5h-2v-14h2zm-8 0h-2v-10h2zm-8 0h-2v-8h2zm-8 0h-2v-4h2zm36 5c0 1.654-1.346 3-3 3h-40.002c.629-.836 1.002-1.875 1.002-3v-3h42z"/><path d="m17 19c-1.103 0-2-.897-2-2h-2c0 1.859 1.279 3.411 3 3.858v2.142h2v-2h3v-4c0-2.206-1.794-4-4-4-1.103 0-2-.897-2-2v-2h2c1.103 0 2 .897 2 2h2c0-1.859-1.279-3.411-3-3.858v-2.142h-2v2h-3v4c0 2.206 1.794 4 4 4 1.103 0 2 .897 2 2v2z"/><path d="m51 5h-28v18h28zm-2 16h-24v-14h24z"/><path d="m27 9h2v2h-2z"/><path d="m31 9h16v2h-16z"/><path d="m27 13h2v2h-2z"/><path d="m31 13h16v2h-16z"/><path d="m27 17h2v2h-2z"/><path d="m31 17h16v2h-16z"/><path d="m43.586 31-5.586 5.586-4-4-10.707 10.707 1.414 1.414 9.293-9.293 4 4 7-7 3.542 3.542 2.832-11.33-11.33 2.832zm3.872 1.044-3.502-3.502 4.67-1.168z"/><path d="m13 27h2v2h-2z"/><path d="m17 27h2v2h-2z"/><path d="m21 27h2v2h-2z"/><path d="m13 31h10v2h-10z"/><path d="m13 35h10v2h-10z"/><path d="m57 57h2v2h-2z"/><path d="m53 57h2v2h-2z"/><path d="m49 57h2v2h-2z"/><path d="m5 27h2v2h-2z"/><path d="m5 23h2v2h-2z"/><path d="m5 19h2v2h-2z"/></svg>