<svg id="_x33_0" enable-background="new 0 0 64 64" height="512" viewBox="0 0 64 64" width="512" xmlns="http://www.w3.org/2000/svg"><g><g><g><path d="m59.93 34h2.07c0 7.73-3.14 14.73-8.2 19.8-5.07 5.06-12.07 8.2-19.8 8.2v-2.07-6.02-8.05-11.86h11.86 8.05z" fill="#e6e9ed"/></g><g><path d="m55.28 16.44c-1.02-1.53-2.19-2.95-3.48-4.24-1.3-1.29-2.71-2.46-4.24-3.48-1.51-1.02-3.13-1.89-4.84-2.6-1.68-.7-3.44-1.23-5.26-1.59l-1.17 5.89c1.43.28 2.82.71 4.13 1.26 1.34.55 2.61 1.23 3.8 2.03 1.2.8 2.31 1.71 3.33 2.74 1.02 1.01 1.94 2.12 2.74 3.33.8 1.19 1.48 2.46 2.04 3.8l5.55-2.3c-.71-1.71-1.58-3.33-2.6-4.84z" fill="#fcd770"/></g><g><path d="m32 4v6c-4.43 0-8.55 1.31-12 3.56v-3.56l.34-.5c.72-1.09 1.22-2.31 1.47-3.59 3.16-1.23 6.6-1.91 10.19-1.91z" fill="#ffeaa7"/></g><g><path d="m60 32c0 .67-.02 1.34-.07 2h-6.02c.06-.66.09-1.33.09-2 0-1.47-.14-2.9-.42-4.29l5.89-1.17c.35 1.76.53 3.59.53 5.46z" fill="#ffeaa7"/></g><g><path d="m34 53.91v6.02c-.66.05-1.33.07-2 .07-3.52 0-6.89-.65-10-1.84v-6.56c3 1.53 6.4 2.4 10 2.4.67 0 1.34-.03 2-.09z" fill="#ffeaa7"/></g><g><circle cx="48" cy="50" fill="#ff826e" r="2"/></g><g><circle cx="40" cy="40" fill="#ff826e" r="2"/></g><g><path d="m22 58.16v3.84h-16v-16h16v5.6z" fill="#ff826e"/></g><g><path d="m20 13.56v.44h-8v-4h4 4z" fill="#e6e9ed"/></g><g><path d="m22 4c0 .65-.06 1.29-.19 1.91-.25 1.28-.75 2.5-1.47 3.59l-.34.5h-4l-.21-.42c-.88-1.76-1.44-3.64-1.67-5.58-.08-.66-.12-1.33-.12-2 3 0 5 .5 6.25 1s1.75 1 1.75 1z" fill="#a0d468"/></g><g><path d="m15.79 9.58.21.42h-4l-2-4c.61-1.23 1.87-2 3.24-2h.88c.23 1.94.79 3.82 1.67 5.58z" fill="#b4dd7f"/></g><g><path d="m7.55 24c-.34 0-.66.18-.84.47l-2.65 4.23c-.04-.35-.06-.7-.06-1.06 0-2.36.8-4.64 2.27-6.48l5.73-7.16h8l4.8 5.99.93 1.17c1.47 1.84 2.27 4.12 2.27 6.48 0 2.86-1.16 5.45-3.04 7.32-.3.3-.62.59-.96.86-1.76 1.37-3.96 2.18-6.36 2.18h-3.28c-1.03 0-2.03-.15-2.97-.43-.13-.31-.29-.61-.47-.9-.7-1.12-1.7-2.05-2.92-2.67l1.85-6.47c.1-.35.15-.72.15-1.08 0-.68-.27-1.29-.72-1.73-.44-.45-1.05-.72-1.73-.72z" fill="#b4dd7f"/></g><g><path d="m11.39 37.57c.94.28 1.94.43 2.97.43h3.28c2.4 0 4.6-.81 6.36-2.18v3.57c0 1.26-.2 2.49-.59 3.67-.33 1.03-.8 2.02-1.41 2.94h-16l-3.61-9.93c-.26-.71-.39-1.46-.39-2.21 0-1.22.34-2.41.98-3.44l1.08-1.71v-.01l2.65-4.23c.18-.29.5-.47.84-.47.68 0 1.29.27 1.73.72.45.44.72 1.05.72 1.73 0 .36-.05.73-.15 1.08l-1.85 6.47c1.22.62 2.22 1.55 2.92 2.67.18.29.34.59.47.9z" fill="#f0d0b4"/></g></g><g><path d="m15 30.816v2.184h2v-2h2v-3c0-1.654-1.346-3-3-3-.551 0-1-.448-1-1v-1h1c.551 0 1 .448 1 1v1h2v-1c0-1.302-.839-2.402-2-2.816v-2.184h-2v2h-2v3c0 1.654 1.346 3 3 3 .551 0 1 .448 1 1v1h-1c-.551 0-1-.448-1-1v-1h-2v1c0 1.302.839 2.402 2 2.816z"/><path d="m60.965 33c.011-.334.035-.668.035-1 0-1.903-.186-3.807-.552-5.658l-.194-.981-7.847 1.561.194.98c.265 1.34.399 2.719.399 4.098 0 .334-.029.666-.045 1h-5.99c.022-.333.035-.667.035-1 0-8.271-6.729-15-15-15-2.431 0-4.816.591-6.951 1.71l-3.793-4.741c3.243-1.937 6.936-2.969 10.744-2.969h1v-8h-1c-3.091 0-6.116.485-9.016 1.434.006-.145.016-.289.016-.434v-.414l-.293-.293c-.234-.234-2.473-2.293-8.707-2.293h-1v1c0 .338.01.677.03 1.014-1.676.074-3.168 1.027-3.924 2.538l-.224.448 2.118 4.236v3.413l-5.51 6.887c-1.606 2.008-2.49 4.529-2.49 7.1 0 .274.023.542.042.811l-.905 1.448c-.744 1.19-1.137 2.56-1.137 3.963 0 .875.151 1.735.45 2.557l3.55 9.761v16.824h18v-3.427c2.895.946 5.915 1.427 9 1.427.335 0 .666-.024 1-.035v2.035h1c15.991 0 29-13.01 29-29v-1zm-6.23-4.503 3.927-.781c.225 1.41.338 2.847.338 4.284 0 .331-.023.666-.035 1h-4.01c.014-.334.045-.666.045-1 0-1.174-.089-2.348-.265-3.503zm-22.735-9.497c7.168 0 13 5.832 13 13 0 .333-.015.667-.04 1h-11.96v11.948c-3.005.231-5.966-.577-8.425-2.295.276-1.058.425-2.149.425-3.258v-3.12c2.443-2.086 4-5.182 4-8.639 0-2.57-.884-5.092-2.49-7.1l-.183-.229c1.759-.854 3.697-1.307 5.673-1.307zm1 33.955c-.334.016-.666.045-1 .045-3.158 0-6.181-.689-9-2.03v-4.688c.338-.535.635-1.091.889-1.664 2.415 1.561 5.193 2.382 8.111 2.382.332 0 .666-.013 1-.035zm-10.339-46.279c2.675-.987 5.47-1.554 8.339-1.658v4.004c-3.519.151-6.927 1.106-10 2.783v-1.501l.168-.252c.694-1.042 1.191-2.182 1.493-3.376zm-1.674-2.19c-.086 1.591-.594 3.122-1.483 4.455l-.039.059h-2.839c-.911-1.863-1.458-3.908-1.593-5.979 3.503.151 5.293 1.043 5.954 1.465zm-1.987 6.514v2h-6v-2zm-5.764-6h.022c.234 1.372.625 2.718 1.167 4h-1.807l-1.477-2.953c.489-.655 1.256-1.047 2.095-1.047zm-6.184 16.786 5.429-6.786h7.038l5.429 6.786c1.323 1.653 2.052 3.732 2.052 5.85 0 5.163-4.201 9.364-9.364 9.364h-3.271c-.775 0-1.539-.115-2.284-.302-.66-1.282-1.646-2.387-2.903-3.181l1.631-5.71c.127-.442.191-.901.191-1.362 0-1.899-1.546-3.445-3.446-3.445-.693 0-1.327.351-1.696.939l-.249.399c.344-.916.826-1.781 1.443-2.552zm-3.722 13.945c-.219-.601-.33-1.231-.33-1.873 0-1.028.288-2.032.833-2.904l3.721-5.954c.798 0 1.446.648 1.446 1.445 0 .275-.038.549-.114.813l-2.076 7.265.742.371c2.127 1.063 3.448 3.201 3.448 5.578v.528h2v-.528c0-.539-.067-1.063-.167-1.578.506.068 1.017.106 1.531.106h3.271c1.939 0 3.765-.49 5.364-1.35v1.745c0 1.984-.534 3.912-1.55 5.605h-14.749zm3.67 25.269v-14h14v14zm25-2c-3.096 0-6.116-.539-9-1.56v-4.273c2.841 1.214 5.86 1.833 9 1.833.334 0 .666-.031 1-.045v4.01c-.334.012-.665.035-1 .035zm3 1.981v-25.981h25.982c-.515 14.096-11.886 25.467-25.982 25.981z"/><path d="m48 47c-1.654 0-3 1.346-3 3s1.346 3 3 3 3-1.346 3-3-1.346-3-3-3zm0 4c-.551 0-1-.448-1-1s.449-1 1-1 1 .448 1 1-.449 1-1 1z"/><path d="m40 43c1.654 0 3-1.346 3-3s-1.346-3-3-3-3 1.346-3 3 1.346 3 3 3zm0-4c.551 0 1 .448 1 1s-.449 1-1 1-1-.448-1-1 .449-1 1-1z"/><path d="m34.78 44h18.439v2h-18.439z" transform="matrix(.651 -.759 .759 .651 -18.801 49.122)"/><path d="m51.407 23.962.383.924 7.393-3.063-.383-.924c-3.725-8.981-11.629-15.465-21.143-17.347l-.98-.193-1.561 7.848.982.194c6.889 1.361 12.612 6.057 15.309 12.561zm-3.857-8.926c-.619-.568-1.268-1.1-1.945-1.596l2.224-3.329c.892.645 1.744 1.345 2.551 2.095zm-3.613-2.701c-.716-.434-1.456-.829-2.219-1.184l1.532-3.699c1.005.459 1.976.978 2.911 1.553zm8.915 9.946c-.357-.766-.754-1.505-1.187-2.219l3.328-2.224c.573.932 1.096 1.901 1.558 2.909zm1.027-6.102-3.329 2.224c-.497-.679-1.029-1.329-1.594-1.946l2.832-2.831c.747.805 1.445 1.657 2.091 2.553zm-15.633-10.453c1.079.255 2.132.579 3.159.959l-1.532 3.698c-.784-.284-1.587-.529-2.407-.729z"/></g></g></svg>