<svg id="icons" height="512" viewBox="0 0 60 60" width="512" xmlns="http://www.w3.org/2000/svg"><circle cx="14" cy="14" fill="#e3cb5b" r="13"/><circle cx="46" cy="46" fill="#e4f1ff" r="13"/><path d="m51.681 22.812-4.92 4.88a1.091 1.091 0 0 1 -1.52 0l-4.92-4.88a1.057 1.057 0 0 1 .76-1.81h.919a9.759 9.759 0 0 0 -7.84-9.572l-.83-.16a1.651 1.651 0 0 1 .32-3.27h3.35a13 13 0 0 1 13 13h.92a1.057 1.057 0 0 1 .761 1.812z" fill="#78e096"/><path d="m8.319 37.188 4.92-4.88a1.091 1.091 0 0 1 1.52 0l4.92 4.88a1.057 1.057 0 0 1 -.76 1.81h-.919a9.759 9.759 0 0 0 7.84 9.572l.83.16a1.651 1.651 0 0 1 -.32 3.27h-3.35a13 13 0 0 1 -13-13h-.92a1.057 1.057 0 0 1 -.761-1.812z" fill="#78e096"/><g fill="#373737"><path d="m2 14a1 1 0 0 0 -2 0 13.988 13.988 0 1 0 .676-4.308 1 1 0 1 0 1.9.616 12.011 12.011 0 1 1 -.576 3.692z"/><path d="m46 32a14 14 0 1 0 14 14 14.015 14.015 0 0 0 -14-14zm0 26a12 12 0 1 1 12-12 12.013 12.013 0 0 1 -12 12z"/><path d="m39.156 21.285a2.042 2.042 0 0 0 .46 2.236l4.926 4.887a2.1 2.1 0 0 0 2.923-.006l4.919-4.879a2.047 2.047 0 0 0 .462-2.238 2.072 2.072 0 0 0 -1.88-1.285 14.021 14.021 0 0 0 -13.966-13h-3.35a2.651 2.651 0 0 0 -.509 5.252l.824.159a8.78 8.78 0 0 1 6.979 7.6 2.071 2.071 0 0 0 -1.788 1.274zm-4.806-10.836-.819-.158a.662.662 0 0 1 -.531-.641.651.651 0 0 1 .65-.65h3.35a12.015 12.015 0 0 1 12 12 1 1 0 0 0 1 1l.994.042c.011.027.006.035-.016.056l-4.916 4.875a.092.092 0 0 1 -.117 0l-4.921-4.873.057-.1h.919a1 1 0 0 0 1-1 10.786 10.786 0 0 0 -8.65-10.551z"/><path d="m20.844 38.715a2.042 2.042 0 0 0 -.46-2.236l-4.926-4.887a2.1 2.1 0 0 0 -2.923.006l-4.919 4.879a2.047 2.047 0 0 0 -.462 2.238 2.072 2.072 0 0 0 1.88 1.285 14.021 14.021 0 0 0 13.966 13h3.35a2.651 2.651 0 0 0 .509-5.252l-.824-.159a8.78 8.78 0 0 1 -6.979-7.595 2.071 2.071 0 0 0 1.788-1.279zm4.806 10.836.819.158a.662.662 0 0 1 .531.641.651.651 0 0 1 -.65.65h-3.35a12.015 12.015 0 0 1 -12-12 1 1 0 0 0 -1-1l-.994-.042c-.011-.027-.006-.035.016-.056l4.916-4.875a.093.093 0 0 1 .062-.027.08.08 0 0 1 .053.019l4.921 4.88-.057.1h-.917a1 1 0 0 0 -1 1 10.786 10.786 0 0 0 8.65 10.552z"/><path d="m11 18a1 1 0 0 0 -2 0 5.009 5.009 0 0 0 4 4.9v.1a1 1 0 0 0 2 0v-.1a5 5 0 0 0 0-9.8v-5.916a3 3 0 0 1 2 2.816 1 1 0 0 0 2 0 5.009 5.009 0 0 0 -4-4.9v-.1a1 1 0 0 0 -2 0v.1a5 5 0 0 0 0 9.8v5.917a3 3 0 0 1 -2-2.817zm6 0a3 3 0 0 1 -2 2.816v-5.632a3 3 0 0 1 2 2.816zm-6-8a3 3 0 0 1 2-2.816v5.632a3 3 0 0 1 -2-2.816z"/><path d="m50.447 38.1a1 1 0 0 0 -1.342.448l-3.105 6.216-3.1-6.211a1 1 0 1 0 -1.79.894l3.272 6.553h-1.382a1 1 0 0 0 0 2h2v2h-2a1 1 0 0 0 0 2h2v2a1 1 0 0 0 2 0v-2h2a1 1 0 0 0 0-2h-2v-2h2a1 1 0 0 0 0-2h-1.382l3.282-6.553a1 1 0 0 0 -.453-1.347z"/></g></svg>