<svg height="512" viewBox="0 0 512 512" width="512" xmlns="http://www.w3.org/2000/svg"><g id="FILLED_OUTLINE"><path d="m392 136h64v352h-64z" fill="#31c292"/><path d="m416 24 24 24-96 96-68-68-236 236 24 24 200-200 12-12 68 68 120-120 24 24v-72z" fill="#486cbc"/><path d="m163.122 262.48478a120.846 120.846 0 0 1 -18.78253 1.51475c-65.68829.18189-119.77623-53.2692-120.335-118.95535a120.00035 120.00035 0 0 1 121.06416-121.03953c65.37044.56911 118.68109 54.15489 118.93048 119.52733a119.503 119.503 0 0 1 -26.48676 75.67738 16.109 16.109 0 0 0 -2.92746 14.82079l10.71156 34.998a16 16 0 0 1 -22.24452 19.09668l-50.38159-24.27505a16.10561 16.10561 0 0 0 -9.54834-1.365z" fill="#ffd168"/><g fill="#31c292"><path d="m56 368h64v120h-64z"/><path d="m168 320h64v168h-64z"/><path d="m280 224h64v264h-64z"/></g><rect fill="#5b7bc3" height="96" rx="16" width="144" x="72" y="104"/><path d="m168 104h-16v-24a8 8 0 0 0 -16 0v24h-16v-24a24 24 0 0 1 48 0z" fill="#486cbc"/><path d="m200 104h-112a16.00008 16.00008 0 0 0 -16 16v8a177.27966 177.27966 0 0 0 144 0v-8a16.00008 16.00008 0 0 0 -16-16z" fill="#486cbc"/><path d="m54.619 144h186.762v15.999h-186.762z" fill="#94a9d8" transform="matrix(.728 -.685 .685 .728 -63.949 142.755)"/><path d="m16 480h480v16h-480z" fill="#31c292"/><path d="m214.20764 100.67236 7.27527-6.84716-10.96582-11.6504-14.68921 13.8252h-27.82788v-16a24 24 0 0 0 -48 0v16h-32a24.02718 24.02718 0 0 0 -24 24v64a24.03527 24.03527 0 0 0 14.78528 22.15771l-4.26819 4.01709 10.96582 11.6504 14.68921-13.8252h99.82788a24.02718 24.02718 0 0 0 24-24v-64a23.9794 23.9794 0 0 0 -9.79236-19.32764zm-6.20764 19.32764v2.7063a168.76154 168.76154 0 0 1 -25.92993 8.21313l19.84546-18.678a8.00747 8.00747 0 0 1 6.08447 7.75857zm-72-40a8 8 0 0 1 16 0v16h-16zm-48 32h90.82788l-24.34988 22.91748a169.44624 169.44624 0 0 1 -74.478-12.21118v-2.7063a8.00917 8.00917 0 0 1 8-8zm0 80a8.00917 8.00917 0 0 1 -8-8v-44.14429a185.35093 185.35093 0 0 0 57.269 11.25855l-43.44112 40.88574zm112 0h-82.82788l44.17309-41.57471a185.20507 185.20507 0 0 0 46.65479-10.56958v44.14429a8.00917 8.00917 0 0 1 -8 8z"/><path d="m496 115.31348v-99.31348h-99.31348l32 32-84.68652 84.68652-68-68-19.15247 19.1521c-21.46862-39.94462-63.53271-67.41382-111.70886-67.83374-.38476-.00288-.76806-.00488-1.15185-.00488a127.95241 127.95241 0 0 0 -60.18543 240.88477l-55.11487 55.11523 35.31348 35.31348 75.40576-75.40528c1.52747.0542 3.05908.0918 4.59912.0918h.35791a129.37289 129.37289 0 0 0 20.02491-1.61621 8.09043 8.09043 0 0 1 4.81005.67285l50.38135 24.27536a24.15117 24.15117 0 0 0 10.50488 2.43359 24.08326 24.08326 0 0 0 22.86231-31.07812l-10.71143-34.999a8.11932 8.11932 0 0 1 1.5083-7.46192 128.29142 128.29142 0 0 0 28.25584-80.72455c-.00525-1.37158-.04028-2.73657-.08911-4.09814l4.09011-4.09038 68 68 40-40v316.68652h-32v-264h-80v264h-32v-168h-80v168h-32v-120h-80v120h-32v16h480v-16h-32v-352h-44.68652l44.68652-44.68652zm-432 209.37304-12.68652-12.68652 48.06445-48.064a126.74193 126.74193 0 0 0 19.75244 5.61962zm167.28125-110.49511a24.10132 24.10132 0 0 0 -4.34619 22.17968l10.71142 34.999a7.99956 7.99956 0 0 1 -11.12207 9.54785l-50.38281-24.27634a23.88681 23.88681 0 0 0 -10.38916-2.36816 24.64365 24.64365 0 0 0 -3.895.31152h-.001a113.2087 113.2087 0 0 1 -17.53906 1.41504h-.313c-61.26513 0-111.479-49.74023-112.00048-111.02441a112.00111 112.00111 0 0 1 111.98731-112.97559c.33447 0 .67334.002 1.00781.00488 60.97315.53028 110.76709 50.5752 111 111.55762a112.24347 112.24347 0 0 1 -24.71777 70.62891zm44.71875-101.50489-6.45459 6.45435a126.52468 126.52468 0 0 0 -5.63123-19.74121l12.08582-12.08618 68 68 107.31348-107.31348-16-16h44.68652v44.68652l-16-16-120 120zm12 119.31348h48v248h-48zm-112 96h48v152h-48zm-112 48h48v104h-48zm384-232v336h-48v-332.68652l3.31348-3.31348z"/></g></svg>