<svg id="Capa_1" enable-background="new 0 0 512.002 512.002" height="512" viewBox="0 0 512.002 512.002" width="512" xmlns="http://www.w3.org/2000/svg"><g><g clip-rule="evenodd" fill-rule="evenodd"><path d="m10 10h440v40h-440z" fill="#88df8e"/><path d="m10 50h440v40h-440z" fill="#b8ecbb"/><path d="m95 300.001h224.001 51.66c-10.921-4.512-18.66-15.322-18.66-27.859v-9.79c0-16.558 13.5-30.105 30-30.105 9.209 0 17.484 4.22 22.999 10.829v-73.075c-22.091 0-40-17.909-40-40h-270c0 22.091-17.909 40-40 40v90c22.092 0 40 17.908 40 40z" fill="#b8ecbb"/><path d="m405 243.076c4.366 5.232 7.001 11.96 7.001 19.276v9.79c0 12.536-7.739 23.347-18.66 27.859-3.503 1.447-7.333 2.246-11.34 2.246s-7.837-.799-11.34-2.246h-275.661c0-22.091-17.909-40-40-40v-90c22.091 0 40-17.909 40-40h270c0 22.091 17.909 40 40 40v49.851zm-85.998 56.925h51.66zm-309.002 40h241.001 77.529c9.926-19.442 30.144-32.754 53.471-32.754s43.545 13.312 53.471 32.754h14.528v-250h-440z" fill="#88df8e"/><g><g fill="#ffdcd5"><path d="m352.001 272.142c0 16.558 13.5 30.105 30 30.105s30-13.548 30-30.105v-9.79c0-16.557-13.5-30.105-30-30.105s-30 13.547-30 30.105z"/><path d="m352.002 397.247c0-16.5-13.5-30-30-30s-30 13.5-30 30v9.756c0 16.5 13.5 30 30 30s30-13.5 30-30z"/><path d="m442.001 367.247c-16.5 0-30 13.5-30 30v9.756c0 16.5 13.5 30 30 30 16.499 0 30-13.5 30-30v-9.756c0-16.5-13.5-30-30-30z"/></g><path d="m382.157 502.002h119.844c0-33.137-26.863-60-60-60-31.669 0-57.608 24.535-59.844 55.635z" fill="#00ccf2"/><path d="m381.846 502.002h-119.845c0-33.137 26.863-60 60-60 31.669 0 57.608 24.535 59.844 55.635v4.365z" fill="#ff5a58"/><path d="m382.157 497.637c2.236-31.099 28.175-55.635 59.844-55.635v-5c-16.5 0-30-13.5-30-30v-9.756c0-16.5 13.5-30 30-30 0-33.137-26.863-60-60-60s-60 26.863-60 60c16.5 0 30 13.5 30 30v9.756c0 16.5-13.5 30-30 30v5c.33 0 .659.003.988.008 14.175.229 27.147 5.37 37.297 13.791 12.219 10.136 20.351 25.027 21.559 41.835v.009 4.356h.312z" fill="#ffc144"/></g></g><g><path d="m468.29 437.126c8.397-7.338 13.711-18.122 13.711-30.123v-9.756c0-18.805-13.044-34.62-30.559-38.874-.362-2.847-.895-5.641-1.59-8.372h.148c5.523 0 10-4.477 10-10v-330.001c0-5.523-4.477-10-10-10h-440c-5.523 0-10 4.477-10 10v330c0 5.523 4.477 10 10 10h304.151c-.694 2.731-1.228 5.525-1.59 8.372-17.515 4.254-30.559 20.069-30.559 38.875v9.756c0 12.002 5.313 22.785 13.711 30.123-25.609 10.415-43.711 35.571-43.711 64.877 0 5.523 4.477 10 10 10h240c2.652 0 5.196-1.054 7.071-2.929s2.929-4.419 2.929-7.071c-.001-29.306-18.103-54.463-43.712-64.877zm-6.289-39.879v9.756c0 11.028-8.972 20-20 20s-20-8.972-20-20v-9.756c0-11.028 8.972-20 20-20s20 8.972 20 20zm-22.001-377.247v20h-420v-20zm-420 310v-230h164.996c5.523 0 10-4.477 10-10s-4.477-10-10-10h-164.996v-20h420v20h-165.004c-5.523 0-10 4.477-10 10s4.477 10 10 10h165.004v228.091c-7.744-11.434-18.777-20.467-31.73-25.73 8.409-7.357 13.731-18.177 13.731-30.219v-9.79c0-8.394-2.586-16.194-7.001-22.642v-69.71c0-5.523-4.477-10-10-10-16.542 0-30-13.458-30-30 0-5.523-4.477-10-10-10h-270c-5.523 0-10 4.477-10 10 0 16.542-13.458 30-30 30-5.523 0-10 4.477-10 10v90c0 5.523 4.477 10 10 10 16.542 0 30 13.458 30 30 0 5.523 4.477 10 10 10h246.758c-7.575 5.341-14.048 12.146-19.003 20zm382.001-67.648v9.79c0 11.085-8.972 20.104-20 20.104s-20-9.019-20-20.104v-9.79c0-11.086 8.972-20.105 20-20.105s20 9.019 20 20.105zm-7.001-37.931c-4.077-1.409-8.451-2.174-12.999-2.174-22.056 0-40 17.991-40 40.105v9.79c0 6.412 1.509 12.478 4.189 17.858h-242.194c-3.987-19.561-19.435-35.008-38.996-38.996v-72.009c19.561-3.987 35.008-19.435 38.996-38.996h252.009c3.987 19.561 19.435 35.008 38.996 38.996v45.426zm-92.998 172.826c0-11.028 8.972-20 20-20s20 8.972 20 20v9.756c0 11.028-8.972 20-20 20s-20-8.972-20-20zm-28.996 94.755c4.646-22.793 24.85-40 48.995-40 23.995 0 44.343 17.095 49 40zm109.01-26.003c-7.798-12.937-19.656-23.131-33.737-28.863 8.404-7.338 13.722-18.126 13.722-30.133v-9.756c0-18.341-12.408-33.837-29.27-38.538 4.063-23.517 24.61-41.462 49.27-41.462s45.207 17.945 49.27 41.462c-16.862 4.701-29.27 20.197-29.27 38.538v9.756c0 12.016 5.326 22.81 13.74 30.149-14.056 5.736-25.916 15.927-33.725 28.847zm10.987 26.003c4.666-22.881 25.07-40 48.998-40 24.146 0 44.349 17.206 48.996 40z"/><path d="m238.238 207.588-8.819-3.653c-3.153-1.306-4.713-5.073-3.407-8.226s5.073-4.714 8.225-3.407l4.409 1.826c5.103 2.114 10.952-.309 13.065-5.412 2.114-5.103-.31-10.953-5.412-13.066l-4.409-1.827c-.626-.259-1.256-.492-1.889-.7v-3.123c0-5.523-4.477-10-10-10s-10 4.477-10 10v4.646c-5.439 2.736-9.961 7.357-12.467 13.411-5.548 13.395.835 28.807 14.231 34.357l8.818 3.652c3.152 1.306 4.712 5.073 3.406 8.226-1.305 3.153-5.072 4.714-8.225 3.408l-4.409-1.827c-5.102-2.115-10.952.308-13.066 5.411-2.114 5.102.308 10.952 5.411 13.066l4.41 1.828c.626.259 1.256.492 1.89.7v3.122c0 5.523 4.477 10 10 10s10-4.477 10-10v-4.646c5.439-2.736 9.96-7.357 12.467-13.409 5.549-13.396-.835-28.808-14.229-34.357z"/><path d="m230 100c5.523 0 10-4.477 10-10s-4.477-10-10-10h-.007c-5.523 0-9.996 4.477-9.996 10s4.48 10 10.003 10z"/></g></g></svg>